<?xml version="1.0" standalone="no"?>
<!DOCTYPE svg PUBLIC "-//W3C//DTD SVG 20010904//EN"
 "http://www.w3.org/TR/2001/REC-SVG-20010904/DTD/svg10.dtd">
<svg version="1.0" xmlns="http://www.w3.org/2000/svg"
 width="649.000000pt" height="649.000000pt" viewBox="0 0 649.000000 649.000000"
 preserveAspectRatio="xMidYMid meet">
<metadata>
Created by potrace 1.14, written by Peter Selinger 2001-2017
</metadata>
<g transform="translate(0.000000,649.000000) scale(0.100000,-0.100000)"
fill="#000000" stroke="none">
<path d="M2975 6479 c-879 -69 -1703 -509 -2267 -1210 -369 -459 -603 -1015
-685 -1627 -24 -177 -24 -617 0 -794 62 -463 204 -875 436 -1266 303 -512 754
-938 1281 -1211 69 -35 128 -69 132 -75 5 -7 8 -3 8 8 0 16 2 17 18 5 15 -13
16 -12 3 4 -8 10 -20 16 -27 13 -20 -8 -22 0 -28 122 -5 85 -2 128 9 175 19
73 63 186 82 206 24 27 26 2 3 -41 -30 -58 -46 -115 -44 -161 1 -27 -2 -34 -8
-25 -7 9 -8 6 -4 -11 3 -14 0 -32 -7 -40 -9 -11 -9 -15 1 -18 16 -6 15 -38 -2
-66 -15 -23 -14 -75 1 -86 5 -3 21 -32 37 -63 15 -32 31 -58 36 -58 4 0 10 -9
13 -21 3 -12 10 -18 15 -15 5 3 18 -1 29 -9 15 -11 19 -23 17 -48 -4 -30 0
-37 31 -58 19 -13 33 -29 31 -36 -3 -7 1 -10 9 -7 8 3 20 2 27 -2 7 -5 16 -9
21 -10 4 -1 10 -2 14 -3 3 0 -2 -10 -12 -21 -10 -11 -13 -20 -7 -20 6 0 12 5
14 11 3 9 9 9 24 1 29 -15 120 -26 141 -17 10 4 30 7 46 6 18 -2 27 2 27 12 0
8 11 39 24 68 30 65 36 95 18 92 -15 -4 -15 0 -1 31 7 14 18 27 25 30 18 7 18
-26 -1 -132 -8 -45 -12 -89 -9 -97 6 -16 99 -22 107 -7 7 10 33 247 36 320 1
23 6 32 19 33 14 0 14 2 -3 9 -17 7 -17 9 -2 9 9 1 17 9 17 19 0 10 7 4 17
-16 9 -19 22 -36 30 -39 17 -6 17 -30 1 -36 -10 -4 -10 -8 1 -15 10 -7 12 -21
8 -48 -12 -73 -48 -56 -49 24 0 20 -4 32 -11 29 -9 -3 -12 -47 -11 -148 l1
-144 39 0 c30 0 39 4 39 17 0 9 3 20 7 23 4 4 4 13 1 21 -3 8 -1 14 4 14 5 0
10 6 10 14 0 7 10 36 23 62 12 27 31 68 41 92 17 39 21 42 46 36 41 -10 42
-11 33 -50 -5 -21 -4 -47 1 -61 5 -13 9 -58 9 -99 l0 -74 30 0 c17 0 30 5 30
13 0 9 2 9 9 -1 5 -9 24 -12 52 -10 l44 3 -1 40 c-1 22 -4 152 -8 289 -4 137
-9 267 -11 290 -6 54 -6 437 -1 501 20 213 33 510 24 516 -13 8 38 40 55 34 7
-3 29 1 48 9 18 7 57 13 86 12 28 0 49 2 46 7 -2 4 3 7 11 7 8 0 18 -5 21 -10
3 -6 11 -10 17 -10 6 0 3 9 -7 20 -15 17 -26 19 -79 13 -33 -3 -76 -12 -95
-19 -55 -23 -50 -16 23 31 77 50 86 53 86 28 0 -15 2 -16 10 -3 8 13 13 13 31
2 21 -13 21 -13 5 9 -22 32 -21 34 19 59 28 17 53 22 140 24 58 2 105 0 105
-5 0 -8 -112 -23 -165 -22 -53 1 -105 -16 -98 -33 3 -9 9 -11 17 -6 19 16 46
10 46 -10 0 -11 5 -16 11 -13 6 4 8 13 5 21 -3 8 2 15 12 16 61 5 78 3 91 -10
10 -9 16 -11 19 -4 2 6 10 8 18 5 8 -3 14 0 14 7 0 6 4 8 10 5 5 -3 15 5 22
19 7 17 19 26 35 26 32 0 31 -33 -2 -48 -14 -6 -25 -16 -25 -22 0 -14 13 -13
29 3 11 10 13 2 8 -47 -5 -54 -4 -60 22 -85 35 -34 65 -81 51 -81 -6 0 -21 5
-33 12 -57 30 -98 12 -92 -42 2 -14 6 -52 10 -85 4 -33 12 -67 19 -75 6 -8 27
-49 46 -90 19 -41 40 -80 45 -86 6 -6 21 -33 34 -60 14 -27 31 -62 40 -79 8
-16 14 -31 13 -32 -1 -2 7 -23 18 -49 11 -25 20 -54 20 -64 0 -15 18 -30 35
-30 4 0 -3 190 -10 280 -2 25 -6 58 -10 74 -13 51 17 25 39 -35 12 -30 26 -63
32 -74 6 -11 17 -38 24 -60 20 -64 130 -255 169 -294 36 -36 154 -220 166
-258 3 -13 10 -23 15 -23 5 0 15 -11 22 -24 41 -75 198 -397 209 -428 14 -41
30 -52 22 -15 -6 25 -30 85 -43 107 -16 26 -60 122 -60 130 0 5 -30 62 -67
127 -37 65 -79 141 -93 168 -14 28 -34 61 -43 75 -9 14 -23 42 -31 62 l-16 37
30 -1 c37 -1 47 7 31 25 -6 8 -8 23 -4 32 4 13 3 16 -6 11 -7 -5 -11 -16 -8
-26 3 -13 -2 -19 -20 -23 -23 -4 -29 2 -63 77 -60 127 -80 186 -65 186 11 0
34 63 40 110 1 8 5 26 10 40 7 21 6 22 -6 10 -24 -25 -52 -98 -45 -116 4 -10
1 -21 -6 -25 -13 -8 -86 100 -108 162 -12 34 -11 39 11 70 13 19 30 39 37 45
12 8 12 15 3 32 -6 12 -9 22 -6 22 3 0 -4 10 -15 22 -11 12 -18 28 -16 35 3 7
2 13 -2 13 -5 0 -18 17 -30 39 -20 36 -21 40 -6 70 19 38 13 48 -31 57 -42 8
-74 -14 -117 -83 -17 -26 -46 -71 -64 -99 -19 -28 -34 -57 -34 -65 0 -8 -5
-21 -11 -29 -17 -25 -1 86 20 134 23 51 41 116 41 147 1 30 22 59 44 59 9 0
16 5 16 10 0 6 -7 10 -15 10 -14 0 -21 33 -16 83 3 20 -3 21 -29 7 -15 -8 -20
-6 -24 8 -15 53 16 114 69 138 31 14 41 23 37 36 -4 15 -16 18 -87 18 -93 0
-104 7 -125 75 -7 22 -19 51 -27 63 -10 16 -15 52 -15 114 l0 90 41 42 41 42
0 347 c0 328 1 347 18 347 14 0 23 -18 41 -78 12 -43 26 -84 30 -91 12 -19 48
103 61 205 6 49 15 102 21 118 8 26 4 35 -30 80 -88 114 -131 250 -131 422 0
212 82 395 249 552 86 80 149 119 336 203 104 47 368 72 512 49 71 -11 228
-57 278 -80 85 -41 237 -52 316 -25 54 19 96 58 104 96 4 16 13 29 21 29 12 0
14 -34 14 -199 l0 -198 63 -37 c54 -32 76 -55 172 -184 60 -81 115 -153 122
-160 38 -40 74 -108 105 -202 66 -198 91 -287 102 -371 2 -19 12 -65 21 -103
15 -62 15 -76 1 -150 -8 -44 -20 -121 -26 -171 -6 -49 -20 -135 -32 -190 -11
-55 -20 -119 -20 -143 -1 -40 4 -48 60 -105 46 -47 72 -86 108 -161 l47 -99
-6 -80 -7 -81 -102 -97 -103 -97 60 -12 c33 -7 65 -15 72 -17 30 -11 194 374
266 622 89 305 121 545 121 900 0 289 -11 408 -61 655 -120 598 -429 1179
-859 1615 -683 693 -1615 1040 -2589 964z m-625 -1974 c478 -46 727 -183 806
-444 19 -64 18 -215 -2 -277 -26 -76 -100 -180 -170 -238 -79 -65 -228 -143
-356 -187 -54 -18 -98 -36 -98 -40 0 -4 17 -10 38 -14 63 -12 235 -73 297
-106 192 -102 273 -223 284 -425 l6 -101 -32 14 c-43 17 -108 17 -127 -2 -8
-8 -19 -15 -23 -15 -5 0 -17 -15 -27 -32 -9 -18 -24 -45 -32 -60 -17 -31 -51
-45 -67 -29 -17 17 -37 13 -37 -7 0 -15 -7 -18 -37 -16 -52 2 -83 14 -83 30 0
8 -10 14 -22 14 -22 -1 -23 -1 -4 -15 19 -14 18 -15 -15 -15 -19 0 -43 6 -54
14 -11 7 -34 17 -52 20 -46 10 -110 -36 -163 -118 -45 -69 -43 -69 -175 -81
-66 -6 -144 -25 -151 -36 -3 -5 -10 -9 -16 -9 -19 0 14 31 56 52 29 15 50 19
82 14 27 -3 46 -1 50 5 4 7 24 9 49 6 34 -3 45 -1 49 12 3 9 14 27 25 41 18
22 21 51 32 245 21 391 0 495 -116 570 -26 17 -52 20 -197 23 l-168 4 0 -566
c0 -311 3 -566 6 -566 11 0 33 34 34 50 0 14 39 72 40 59 0 -4 -15 -38 -32
-75 -32 -67 -33 -73 -33 -199 0 -110 -3 -133 -17 -147 -10 -10 -18 -24 -18
-30 1 -7 9 -3 19 10 26 30 36 28 59 -12 12 -19 37 -45 56 -58 62 -40 58 -65
-11 -70 -22 -2 -39 -6 -37 -10 8 -12 -33 -28 -70 -28 -41 0 -45 -11 -16 -40
25 -25 25 -28 -2 -40 -16 -7 3 -8 62 -4 82 6 157 7 230 5 26 -1 31 -4 20 -11
-9 -6 -10 -10 -3 -10 6 0 15 5 18 11 5 6 16 4 33 -7 15 -10 43 -26 62 -36 60
-32 124 -83 140 -113 8 -16 25 -38 38 -48 34 -28 45 -54 32 -77 -6 -11 -18
-20 -27 -20 -25 0 -164 70 -170 86 -3 8 -14 14 -25 14 -10 0 -47 14 -80 30
-42 21 -65 27 -72 20 -14 -14 -36 -12 -71 6 -16 9 -43 20 -58 25 -25 7 -27 6
-17 -6 7 -8 19 -15 26 -15 8 0 14 -4 14 -10 0 -5 12 -13 27 -16 l27 -7 -30
-25 -29 -24 31 5 c40 7 94 -24 94 -54 0 -16 5 -20 19 -16 17 4 19 0 15 -29 -2
-19 0 -34 6 -34 10 0 14 14 11 38 -1 7 9 12 23 12 14 0 27 4 30 8 2 4 -5 8
-17 7 -29 0 -34 19 -6 23 13 2 32 -7 50 -24 29 -27 29 -27 64 -11 31 15 36 15
50 0 23 -22 71 -26 106 -8 24 13 29 22 29 50 0 31 6 39 47 65 26 16 48 28 50
26 5 -4 -23 -184 -42 -271 -8 -38 -15 -86 -15 -105 0 -34 -19 -83 -20 -51 0 8
-3 11 -6 8 -4 -4 -1 -13 6 -22 8 -10 9 -15 1 -15 -6 0 -11 -17 -11 -39 0 -22
-5 -52 -11 -68 -6 -15 -15 -44 -19 -63 -4 -19 -17 -71 -29 -115 -12 -44 -22
-106 -22 -138 0 -35 -3 -56 -9 -52 -6 3 -10 -1 -10 -10 0 -9 4 -14 9 -10 12 7
34 -32 26 -45 -10 -17 -25 -11 -18 8 4 10 -8 4 -30 -17 -19 -18 -40 -30 -46
-27 -6 4 -9 1 -6 -7 7 -16 -33 -70 -45 -62 -5 3 -11 1 -15 -5 -3 -5 -19 -10
-36 -10 -16 0 -37 -8 -48 -19 -20 -20 -71 -18 -71 2 0 6 -3 8 -6 4 -7 -7 -54
46 -58 65 -2 7 -8 25 -14 39 -5 14 -13 52 -17 85 -4 32 -10 68 -12 79 -3 11
-7 58 -9 105 -2 47 -8 111 -14 144 -6 32 -9 69 -6 82 4 14 2 24 -4 24 -5 0
-10 14 -10 31 0 17 -6 36 -12 44 -23 23 -48 55 -48 60 0 2 8 1 17 -2 15 -6 16
-5 3 9 -8 9 -18 14 -21 12 -3 -2 -14 12 -25 31 -10 18 -21 32 -24 30 -27 -17
-96 138 -109 240 -6 52 -13 71 -36 95 -28 29 -28 30 -23 133 6 112 18 147 85
241 43 60 73 129 73 167 l0 29 -497 2 c-451 3 -498 5 -501 19 -3 14 11 17 102
21 117 4 144 16 181 79 20 33 20 52 20 1124 0 1193 2 1144 -58 1189 -23 17
-46 21 -138 24 -99 4 -109 6 -109 23 0 18 19 19 653 19 500 0 688 -4 807 -15z
m880 -1855 c22 0 58 -49 69 -95 7 -27 17 -68 24 -90 6 -22 11 -44 12 -50 0 -5
4 -13 9 -16 4 -4 5 -16 1 -29 -6 -18 -13 -6 -36 62 -16 45 -34 101 -40 122 -6
24 -24 53 -47 74 -21 19 -29 31 -19 28 10 -3 23 -6 27 -6z m-153 -6 c-3 -3
-12 -4 -19 -1 -8 3 -5 6 6 6 11 1 17 -2 13 -5z m33 -124 c0 -10 -9 -22 -20
-25 -11 -3 -20 -15 -20 -26 0 -10 -2 -19 -4 -19 -2 0 -11 -3 -20 -6 -20 -8
-21 13 -1 32 17 17 21 49 5 39 -6 -3 -7 1 -4 9 3 9 10 14 14 11 5 -3 11 -1 14
4 3 5 -1 12 -9 15 -9 3 -18 -1 -21 -9 -3 -7 -12 -11 -20 -8 -19 7 0 30 29 36
25 4 57 -26 57 -53z m39 0 c1 -13 0 -13 -9 0 -5 8 -9 24 -9 35 l0 20 9 -20 c5
-11 9 -27 9 -35z m-199 12 c-1 -27 -26 -66 -34 -53 -4 6 -16 11 -28 11 -17 0
-18 -3 -8 -15 15 -18 5 -65 -14 -65 -19 0 -28 28 -16 50 6 11 9 23 8 28 -4 13
72 73 83 66 5 -3 9 -13 9 -22z m-350 -7 c0 -8 -4 -15 -10 -15 -5 0 -10 7 -10
15 0 8 5 15 10 15 6 0 10 -7 10 -15z m-84 -55 c-14 -17 -26 -28 -26 -23 0 5 5
14 12 21 7 7 8 12 3 12 -5 0 0 6 11 14 29 22 29 10 0 -24z m468 5 c-4 -8 -11
-15 -16 -15 -6 0 -5 6 2 15 7 8 14 15 16 15 2 0 1 -7 -2 -15z m190 -16 c-3
-21 0 -28 8 -23 7 5 9 0 6 -14 -4 -12 -2 -22 4 -22 6 0 8 -6 5 -14 -3 -8 -3
-17 1 -20 3 -4 8 -18 10 -33 1 -14 10 -44 17 -67 8 -23 15 -49 15 -59 0 -10 5
-15 11 -11 6 4 10 -1 9 -12 -4 -30 11 -84 23 -84 8 0 7 -4 0 -11 -6 -6 -9 -18
-6 -25 4 -10 -3 -14 -21 -14 -14 0 -26 4 -26 9 0 5 -9 13 -20 16 -14 5 -26 0
-38 -15 -17 -21 -19 -21 -35 -5 -20 19 -22 35 -4 35 7 0 8 3 2 8 -13 9 -35 49
-35 62 0 6 6 8 13 4 9 -6 9 -4 -1 8 -9 11 -10 18 -2 23 6 3 8 11 5 16 -4 5 1
16 9 25 9 8 16 24 16 35 0 12 4 17 11 13 6 -3 9 -15 6 -25 -3 -11 -2 -19 3
-19 11 0 20 -39 13 -56 -3 -8 -11 -14 -19 -14 -8 0 -14 -4 -14 -10 0 -5 6 -10
14 -10 8 0 16 -3 19 -7 2 -5 2 -2 0 6 -2 8 2 18 9 23 21 13 31 9 18 -7 -9 -10
-9 -15 -1 -15 6 0 11 -8 11 -17 0 -14 3 -14 12 -5 10 10 10 15 -2 22 -11 8
-12 12 -3 18 9 6 9 15 -4 37 -9 17 -18 44 -20 60 -2 17 -5 42 -6 57 -2 16 -7
31 -12 35 -4 5 -5 2 0 -6 5 -9 3 -12 -5 -9 -19 6 -24 148 -5 148 8 0 11 -11 9
-31z m-694 -4 c0 -8 -4 -15 -10 -15 -5 0 -10 7 -10 15 0 8 5 15 10 15 6 0 10
-7 10 -15z m630 5 c0 -5 -7 -10 -16 -10 -8 0 -12 5 -9 10 3 6 10 10 16 10 5 0
9 -4 9 -10z m-549 -33 c-16 -16 -26 0 -10 19 9 11 15 12 17 4 2 -6 -1 -17 -7
-23z m49 29 c0 -2 -8 -10 -17 -17 -16 -13 -17 -12 -4 4 13 16 21 21 21 13z
m-163 -28 c-3 -8 -6 -5 -6 6 -1 11 2 17 5 13 3 -3 4 -12 1 -19z m-57 -8 c0 -5
-5 -10 -11 -10 -5 0 -7 5 -4 10 3 6 8 10 11 10 2 0 4 -4 4 -10z m37 -37 c-4
-17 -4 -17 -12 0 -4 9 -4 25 0 35 8 16 8 16 12 0 3 -10 3 -26 0 -35z m108 20
c-11 -3 -23 -10 -27 -16 -4 -6 -10 -8 -13 -5 -13 13 6 28 33 27 21 -1 23 -2 7
-6z m161 -39 c9 -37 -4 -45 -56 -32 -53 13 -75 28 -39 28 13 0 35 7 49 14 35
20 39 19 46 -10z m-211 -12 c-3 -3 -11 0 -18 7 -9 10 -8 11 6 5 10 -3 15 -9
12 -12z m42 2 c-3 -3 -12 -4 -19 -1 -8 3 -5 6 6 6 11 1 17 -2 13 -5z m399 -3
c-4 -5 4 -7 16 -3 14 3 19 1 14 -6 -5 -8 -1 -10 10 -5 13 5 15 2 9 -18 -10
-31 -9 -31 -45 -35 -26 -3 -30 0 -30 20 0 31 10 56 22 56 5 0 7 -4 4 -9z
m-626 -61 c18 -34 10 -43 -12 -14 -13 16 -26 31 -30 32 -5 2 -8 8 -8 13 0 15
38 -9 50 -31z m183 25 c9 -4 17 -13 17 -21 0 -8 3 -14 8 -14 4 0 7 -11 7 -25
0 -14 -3 -25 -7 -25 -17 0 -7 -32 12 -37 11 -3 17 -10 13 -16 -4 -6 2 -8 15
-5 27 7 30 -17 7 -50 -13 -17 -13 -26 -5 -43 14 -25 15 -25 -35 -32 -27 -4
-35 -3 -25 3 11 7 12 10 2 10 -10 0 -13 14 -11 58 2 31 8 60 12 63 5 4 4 16
-2 27 -8 15 -8 22 2 26 9 5 9 7 0 12 -7 3 -13 12 -13 19 0 15 -27 28 -41 20
-5 -4 -6 2 -2 11 4 12 3 15 -5 10 -7 -4 -12 -1 -12 8 0 15 28 16 63 1z m543 1
c6 -17 -12 -56 -26 -56 -6 0 -10 16 -10 35 0 25 4 35 15 35 9 0 18 -6 21 -14z
m357 -79 c9 -13 25 -57 37 -98 12 -41 25 -81 29 -89 17 -31 22 -78 11 -85 -21
-13 -41 20 -43 72 -1 28 -6 49 -11 45 -5 -3 -6 9 -3 27 4 18 3 30 -2 26 -5 -3
-12 14 -16 37 -4 24 -13 52 -21 63 -7 11 -15 38 -19 60 l-6 40 14 -37 c8 -21
22 -48 30 -61z m-1165 72 c12 0 22 -4 22 -9 0 -6 -8 -10 -17 -10 -13 0 -14 -3
-6 -8 9 -6 8 -12 -6 -24 -11 -9 -22 -14 -25 -11 -3 4 -6 -8 -6 -25 0 -24 4
-32 19 -32 25 0 81 -20 81 -29 0 -11 -41 -6 -48 6 -4 5 -15 9 -25 7 -25 -3
-35 -14 -14 -14 12 0 17 -9 17 -30 0 -16 -4 -30 -10 -30 -5 0 -7 7 -4 15 4 8
1 15 -5 15 -15 0 -28 -48 -34 -126 -1 -14 -8 -20 -22 -19 -17 1 -20 9 -21 53
-1 29 2 55 7 58 11 6 2 24 -12 24 -6 0 -7 -4 -4 -10 3 -5 3 -15 -1 -22 -11
-17 -13 -67 -4 -99 6 -21 5 -27 -2 -23 -8 5 -9 1 -4 -12 22 -54 38 -106 33
-110 -6 -6 -67 51 -68 63 -5 58 -17 76 -44 71 -14 -3 -25 -1 -25 3 0 5 9 9 20
9 11 0 20 3 21 8 1 4 3 26 5 50 2 24 8 51 14 62 5 10 10 30 10 44 0 18 5 26
17 26 9 0 14 3 10 6 -3 3 3 15 14 27 22 25 24 37 5 37 -14 0 -31 29 -22 37 12
12 83 31 96 26 8 -3 25 -5 38 -4z m962 -21 c0 -5 -7 -3 -15 6 -8 8 -15 18 -15
22 0 3 7 1 15 -6 8 -7 15 -17 15 -22z m-625 12 c3 -5 -3 -10 -14 -10 -12 0
-21 5 -21 10 0 6 6 10 14 10 8 0 18 -4 21 -10z m54 -29 c23 -32 26 -41 11 -41
-5 0 -10 5 -10 12 0 6 -10 22 -22 35 -12 13 -17 23 -10 23 6 0 20 -13 31 -29z
m-34 -10 c0 -8 -6 -16 -14 -19 -8 -3 -11 0 -7 7 4 6 2 11 -3 11 -6 0 -11 5
-11 11 0 6 8 9 18 7 9 -2 17 -10 17 -17z m-120 -1 c3 -5 1 -10 -4 -10 -6 0
-11 5 -11 10 0 6 2 10 4 10 3 0 8 -4 11 -10z m270 0 c3 -5 2 -10 -4 -10 -5 0
-13 5 -16 10 -3 6 -2 10 4 10 5 0 13 -4 16 -10z m-651 -8 c-12 -8 -40 -73 -36
-85 1 -5 -2 -6 -7 -2 -6 3 -9 -18 -6 -57 3 -42 1 -58 -5 -48 -6 8 -7 28 -4 44
4 19 3 26 -5 22 -16 -10 -13 18 6 61 21 46 42 73 57 73 8 0 8 -3 0 -8z m841
-31 c-5 -17 0 -21 29 -27 39 -7 47 -19 19 -27 -10 -2 -26 -8 -35 -12 -11 -4
-18 -3 -18 3 0 6 8 13 18 15 10 3 6 5 -10 6 -30 1 -38 27 -16 49 17 17 20 15
13 -7z m-575 -27 c0 -8 5 -14 10 -14 6 0 10 -9 10 -21 0 -15 -4 -19 -16 -15
-12 4 -15 2 -10 -9 3 -8 0 -15 -6 -15 -7 0 -9 16 -6 44 3 26 1 50 -6 57 -8 9
-6 9 7 0 9 -7 17 -20 17 -27z m240 21 c0 -8 -2 -15 -4 -15 -2 0 -6 7 -10 15
-3 8 -1 15 4 15 6 0 10 -7 10 -15z m-286 -20 c3 -9 0 -15 -9 -15 -9 0 -12 6
-9 15 4 8 7 15 9 15 2 0 5 -7 9 -15z m721 -4 c-3 -6 -11 -11 -17 -11 -6 0 -6
6 2 15 14 17 26 13 15 -4z m-597 -100 c3 -56 0 -87 -11 -107 -14 -26 -14 -20
-13 88 1 133 19 146 24 19z m-108 50 c0 -29 -14 -49 -23 -34 -8 12 4 63 14 63
5 0 9 -13 9 -29z m690 24 c0 -12 -24 -55 -32 -55 -11 0 -10 4 4 35 9 21 28 35
28 20z m-253 -37 c-3 -7 -5 -2 -5 12 0 14 2 19 5 13 2 -7 2 -19 0 -25z m148
23 c3 -6 -29 -26 -71 -45 -81 -38 -94 -42 -94 -26 0 6 6 10 14 10 7 0 19 7 26
15 7 9 20 13 27 11 8 -3 31 5 51 19 42 29 39 28 47 16z m-267 -40 c-2 -18 -9
-26 -23 -26 -14 0 -21 8 -23 26 -3 23 1 27 23 27 22 0 26 -4 23 -27z m-171
-58 c-2 -16 -4 -3 -4 27 0 30 2 43 4 28 2 -16 2 -40 0 -55z m-207 25 c17 -11
22 -10 30 2 5 8 13 11 17 6 4 -5 2 -11 -5 -13 -23 -9 -42 -34 -41 -56 1 -21 1
-20 12 4 15 33 34 27 31 -10 -3 -46 -23 -97 -52 -133 -27 -33 -43 -40 -58 -25
-4 4 -2 7 4 7 7 0 12 7 12 15 0 8 -5 15 -11 15 -5 0 -7 -6 -3 -12 4 -7 -2 -5
-12 5 -15 14 -16 19 -5 26 10 6 10 10 2 16 -9 5 -8 13 3 30 9 14 12 26 6 30
-11 7 15 86 33 97 15 10 14 10 37 -4z m-250 -13 c0 -8 -2 -15 -4 -15 -2 0 -6
7 -10 15 -3 8 -1 15 4 15 6 0 10 -7 10 -15z m1298 -29 c-1 -19 4 -41 11 -50
12 -14 11 -16 -7 -16 -25 0 -35 36 -19 73 16 35 18 34 15 -7z m-685 -20 c-21
-30 -33 -33 -33 -8 0 22 11 38 30 44 22 7 24 -8 3 -36z m639 -30 c4 -24 -75
-57 -93 -39 -12 12 -2 56 11 48 4 -3 21 2 36 10 30 15 40 11 46 -19z m-805
-18 c-3 -7 -5 -2 -5 12 0 14 2 19 5 13 2 -7 2 -19 0 -25z m86 15 c-7 -2 -19
-2 -25 0 -7 3 -2 5 12 5 14 0 19 -2 13 -5z m87 -33 c0 -11 -4 -20 -9 -20 -5 0
-7 9 -4 20 3 11 7 20 9 20 2 0 4 -9 4 -20z m-591 -35 c0 -5 -4 -3 -9 5 -5 8
-9 22 -9 30 0 16 17 -16 18 -35z m121 25 c0 -5 -4 -10 -10 -10 -5 0 -10 5 -10
10 0 6 5 10 10 10 6 0 10 -4 10 -10z m358 -7 c-10 -2 -26 -2 -35 0 -10 3 -2 5
17 5 19 0 27 -2 18 -5z m1217 -3 c-27 -12 -43 -12 -25 0 8 5 22 9 30 9 10 0 8
-3 -5 -9z m-968 -52 c-3 -7 -5 -2 -5 12 0 14 2 19 5 13 2 -7 2 -19 0 -25z
m-727 -23 c0 -5 -5 -3 -10 5 -5 8 -10 20 -10 25 0 6 5 3 10 -5 5 -8 10 -19 10
-25z m477 29 c-3 -3 -12 -4 -19 -1 -8 3 -5 6 6 6 11 1 17 -2 13 -5z m-34 -21
c-7 -2 -19 -2 -25 0 -7 3 -2 5 12 5 14 0 19 -2 13 -5z m-33 -33 c0 -5 -5 -10
-11 -10 -5 0 -7 5 -4 10 3 6 8 10 11 10 2 0 4 -4 4 -10z m-281 -26 c-14 -17
-42 -19 -36 -1 2 6 10 11 16 10 6 -2 11 2 11 8 0 5 5 7 10 4 8 -5 7 -11 -1
-21z m-69 -19 c0 -2 -10 -9 -22 -15 -22 -11 -22 -10 -4 4 21 17 26 19 26 11z
m1630 -62 c0 -16 -5 -35 -10 -43 -13 -21 -31 28 -18 53 13 26 28 21 28 -10z
m-1280 -33 c0 -5 -4 -10 -9 -10 -6 0 -13 5 -16 10 -3 6 1 10 9 10 9 0 16 -4
16 -10z m-82 -25 c24 -4 62 -32 62 -46 0 -5 -10 -15 -23 -24 -30 -19 -84 -5
-126 34 -45 43 -41 55 17 46 26 -4 58 -8 70 -10z m-338 -15 c0 -5 -2 -10 -4
-10 -3 0 -8 5 -11 10 -3 6 -1 10 4 10 6 0 11 -4 11 -10z m-65 -20 c4 -6 -6 -7
-27 -3 -44 8 -48 13 -10 13 17 0 34 -4 37 -10z m820 0 c-3 -5 0 -10 9 -10 8 0
16 6 19 13 2 6 8 8 13 4 12 -12 -16 -27 -50 -27 -24 0 -27 2 -16 15 14 17 35
21 25 5z m229 -137 c-5 -110 -10 -152 -21 -165 -8 -9 -12 -22 -7 -29 7 -11 15
-223 8 -217 -1 2 -14 38 -28 80 -28 85 -77 198 -87 198 -4 0 -14 -19 -23 -41
-10 -23 -20 -38 -25 -33 -4 5 -15 36 -25 69 -10 33 -25 69 -32 80 -24 34 -15
49 51 91 36 23 65 39 65 35 0 -3 -11 -24 -25 -46 -45 -75 -65 -115 -58 -115 9
0 34 38 77 117 15 29 33 53 38 53 6 0 21 10 34 23 38 37 49 46 56 47 5 0 5
-66 2 -147z m-461 72 c1 -5 -11 -12 -27 -13 -27 -3 -28 -2 -16 13 14 17 40 17
43 0z m191 -122 c11 -42 25 -133 30 -203 15 -214 18 -295 11 -347 l-7 -58 -23
45 c-12 25 -30 60 -40 78 -37 71 -59 222 -40 271 4 9 7 60 8 114 2 75 6 100
17 107 23 15 38 12 44 -7z m133 -170 c-3 -5 2 -42 9 -83 17 -96 22 -135 29
-245 11 -153 14 -179 24 -215 15 -47 13 -124 -4 -190 l-14 -55 6 92 c6 92 6
92 -19 98 l-25 6 1 182 c1 171 -10 300 -33 374 -7 23 -6 33 2 37 19 7 29 7 24
-1z m-216 -335 c-2 -29 1 -38 13 -38 10 0 16 9 16 23 0 16 7 8 26 -28 14 -27
34 -63 43 -80 19 -32 28 -119 13 -128 -11 -7 -43 29 -34 39 4 4 -3 4 -16 1
-13 -3 -20 -1 -16 5 3 5 -3 12 -15 15 -11 3 -30 21 -42 41 -18 31 -20 47 -15
112 3 41 6 86 6 100 l1 25 11 -25 c6 -14 10 -42 9 -62z m39 -263 c11 -27 4
-35 -30 -35 -43 0 -65 60 -36 99 8 10 15 7 34 -15 13 -16 27 -38 32 -49z m129
-162 c-23 -137 -28 -155 -38 -149 -6 4 24 206 38 254 1 1 5 2 9 2 5 0 1 -48
-9 -107z m-208 20 c0 -5 3 -28 5 -53 3 -31 0 -51 -10 -65 -14 -18 -15 -14 -14
53 1 39 5 72 10 72 4 0 8 -3 9 -7z m-692 -158 l0 -20 -9 20 c-5 11 -9 27 -9
35 -1 13 0 13 9 0 5 -8 9 -24 9 -35z m571 -24 c0 -20 -13 -42 -31 -52 -18 -9
-18 -9 -1 25 16 34 32 47 32 27z m-135 -80 c-12 -10 -113 -26 -103 -16 4 4 24
9 45 12 21 3 40 7 42 9 2 2 9 4 15 4 6 0 6 -3 1 -9z m75 -26 c-7 -8 -20 -15
-28 -15 -13 0 -12 3 4 15 25 19 40 19 24 0z m-221 -43 c-1 -15 2 -39 6 -54 4
-18 3 -28 -4 -28 -6 0 -8 7 -4 17 4 10 2 14 -4 10 -7 -5 -9 0 -6 13 3 11 0 20
-6 20 -6 0 -10 6 -8 13 1 7 -7 11 -21 9 -31 -3 -24 20 9 29 32 8 39 3 38 -29z
m85 -14 c12 -10 28 -15 36 -12 10 4 12 2 5 -5 -6 -6 -22 -7 -40 -3 -24 7 -30
14 -32 38 -1 16 0 22 4 14 3 -8 16 -22 27 -32z m-204 -9 c0 -5 8 -9 18 -8 9 1
26 1 36 0 19 -1 19 -2 -2 -21 -19 -18 -52 -18 -52 0 0 5 -13 11 -30 15 -16 4
-30 11 -30 16 0 5 14 9 30 9 17 0 30 -5 30 -11z m318 -26 c2 -28 -21 -88 -44
-110 -20 -21 -26 -15 -10 9 9 12 16 32 16 43 0 12 6 27 12 33 10 10 10 17 0
32 -10 17 -10 20 6 20 12 0 18 -9 20 -27z m-252 -53 c8 0 14 -7 14 -16 0 -13
-3 -14 -13 -5 -8 6 -16 9 -19 6 -3 -3 -11 2 -19 12 -12 15 -12 16 4 10 10 -4
25 -7 33 -7z m84 -32 c0 -4 -7 -5 -15 -2 -8 4 -15 16 -15 28 1 21 1 21 15 2 8
-11 15 -23 15 -28z"/>
<path d="M1900 3910 l0 -570 118 0 c237 1 315 25 367 114 43 73 56 155 62 376
7 250 -10 399 -57 495 -33 69 -44 83 -85 112 -45 31 -121 43 -270 43 l-135 0
0 -570z"/>
<path d="M2780 2560 c0 -5 5 -10 11 -10 5 0 7 5 4 10 -3 6 -8 10 -11 10 -2 0
-4 -4 -4 -10z"/>
<path d="M1922 1750 c-7 -11 -9 -20 -4 -20 10 0 32 22 32 32 0 15 -15 8 -28
-12z"/>
<path d="M1935 1710 c3 -5 8 -10 11 -10 2 0 4 5 4 10 0 6 -5 10 -11 10 -5 0
-7 -4 -4 -10z"/>
<path d="M1810 1685 c7 -8 21 -15 31 -15 12 0 16 5 13 15 -4 8 -17 15 -31 15
-22 0 -24 -2 -13 -15z"/>
<path d="M1990 1350 c-8 -5 -30 -10 -47 -10 -18 0 -33 -5 -33 -11 0 -6 8 -8
18 -5 9 3 34 8 55 12 20 3 37 10 37 15 0 12 -11 11 -30 -1z"/>
<path d="M1876 1313 c-3 -3 -2 -11 2 -17 6 -11 8 -16 11 -35 1 -12 65 5 69 19
2 6 8 8 13 4 5 -3 9 -1 9 5 0 6 -15 8 -34 6 -22 -3 -40 1 -49 10 -8 8 -17 11
-21 8z"/>
<path d="M1830 1283 c0 -13 26 -53 32 -51 5 2 8 8 6 13 -2 6 -7 9 -11 7 -4 -1
-3 6 3 17 8 17 7 20 -10 18 -11 -1 -20 -2 -20 -4z"/>
<path d="M2330 1249 c0 -5 5 -7 10 -4 6 3 10 8 10 11 0 2 -4 4 -10 4 -5 0 -10
-5 -10 -11z"/>
<path d="M2335 1210 c-3 -5 1 -10 10 -10 9 0 13 5 10 10 -3 6 -8 10 -10 10 -2
0 -7 -4 -10 -10z"/>
<path d="M2571 1158 c-1 -9 -5 -18 -9 -20 -13 -5 -23 -68 -12 -68 6 0 10 9 10
21 0 11 5 29 11 40 6 11 8 25 5 32 -2 7 -5 5 -5 -5z"/>
<path d="M1930 1150 c-9 -6 -10 -10 -3 -10 6 0 15 5 18 10 8 12 4 12 -15 0z"/>
<path d="M1940 1085 c0 -8 2 -15 4 -15 2 0 6 7 10 15 3 8 1 15 -4 15 -6 0 -10
-7 -10 -15z"/>
<path d="M2490 1091 c0 -6 4 -13 10 -16 6 -3 7 1 4 9 -7 18 -14 21 -14 7z"/>
<path d="M2060 1051 c0 -5 7 -11 14 -14 10 -4 13 -1 9 9 -6 15 -23 19 -23 5z"/>
<path d="M1998 1023 c7 -3 16 -2 19 1 4 3 -2 6 -13 5 -11 0 -14 -3 -6 -6z"/>
<path d="M2537 1023 c-4 -3 -7 -11 -7 -17 0 -6 5 -5 12 2 6 6 9 14 7 17 -3 3
-9 2 -12 -2z"/>
<path d="M2015 980 c3 -5 8 -10 11 -10 2 0 4 5 4 10 0 6 -5 10 -11 10 -5 0 -7
-4 -4 -10z"/>
<path d="M2266 973 c-6 -14 -5 -15 5 -6 7 7 10 15 7 18 -3 3 -9 -2 -12 -12z"/>
<path d="M2236 955 c4 -8 11 -15 16 -15 6 0 5 6 -2 15 -7 8 -14 15 -16 15 -2
0 -1 -7 2 -15z"/>
<path d="M2068 912 c-4 -12 1 -18 13 -19 16 -2 17 2 9 18 -13 24 -16 24 -22 1z"/>
<path d="M2130 919 c-11 -8 -12 -12 -3 -16 8 -3 11 -14 7 -29 -9 -34 2 -30 15
6 7 23 7 29 -1 24 -8 -5 -9 -2 -5 9 7 20 7 20 -13 6z"/>
<path d="M2132 798 c-15 -15 -15 -28 -1 -28 5 0 7 5 3 12 -5 7 -2 9 9 5 11 -4
14 -2 10 9 -6 17 -6 17 -21 2z"/>
<path d="M2132 735 c-11 -12 -10 -15 3 -15 8 0 15 7 15 15 0 18 -2 18 -18 0z"/>
<path d="M2140 553 c0 -6 8 -17 18 -24 16 -13 16 -13 2 6 -8 11 -16 22 -17 24
-2 2 -3 0 -3 -6z"/>
<path d="M2143 482 c-7 -4 -9 -13 -4 -21 6 -9 10 -7 14 8 3 12 4 21 4 21 -1 0
-7 -4 -14 -8z"/>
<path d="M2250 421 c0 -6 4 -13 10 -16 6 -3 7 1 4 9 -7 18 -14 21 -14 7z"/>
<path d="M3085 2520 c-3 -5 -1 -10 4 -10 6 0 11 5 11 10 0 6 -2 10 -4 10 -3 0
-8 -4 -11 -10z"/>
<path d="M2856 2454 c-3 -8 -2 -13 3 -9 5 3 12 -1 14 -7 3 -7 6 -3 6 10 1 25
-14 30 -23 6z"/>
<path d="M3150 2126 c0 -4 6 -13 13 -20 10 -11 15 -10 27 2 13 14 12 15 -2 10
-8 -4 -21 -1 -27 5 -6 6 -11 8 -11 3z"/>
<path d="M3230 2114 c0 -17 17 -36 24 -26 3 5 -1 15 -9 22 -8 7 -15 9 -15 4z"/>
<path d="M2144 2165 c-3 -14 -10 -22 -15 -19 -15 9 -10 -13 6 -26 13 -11 14
-10 9 4 -4 11 -2 15 7 13 8 -2 11 -2 7 0 -12 7 -10 33 2 33 6 0 10 5 10 10 0
21 -20 9 -26 -15z"/>
<path d="M2201 2014 c0 -11 3 -14 6 -6 3 7 2 16 -1 19 -3 4 -6 -2 -5 -13z"/>
<path d="M2200 1936 c0 -2 7 -9 15 -16 13 -11 14 -10 9 4 -5 14 -24 23 -24 12z"/>
<path d="M2350 1640 c0 -5 10 -10 23 -10 18 0 19 2 7 10 -19 13 -30 13 -30 0z"/>
<path d="M2976 1507 c3 -10 9 -15 12 -12 3 3 0 11 -7 18 -10 9 -11 8 -5 -6z"/>
<path d="M2687 1403 c-4 -3 -7 -13 -7 -22 1 -13 3 -13 11 2 11 19 8 33 -4 20z"/>
<path d="M2723 1203 c4 -6 -5 -32 -18 -59 -26 -51 -32 -84 -15 -84 5 0 13 6
17 14 6 12 11 10 20 -10 6 -13 7 -24 2 -24 -5 0 -9 -7 -9 -15 0 -18 19 -20 21
-2 1 6 2 28 3 47 1 19 5 41 10 48 5 8 2 20 -8 31 -9 10 -14 25 -11 34 4 8 1
18 -6 23 -7 4 -10 3 -6 -3z m17 -75 c0 -16 -3 -19 -11 -11 -6 6 -8 16 -5 22
11 17 16 13 16 -11z"/>
<path d="M2636 854 c-5 -14 -4 -15 9 -4 17 14 19 20 6 20 -5 0 -12 -7 -15 -16z"/>
<path d="M2620 680 c0 -5 5 -10 10 -10 6 0 10 5 10 10 0 6 -4 10 -10 10 -5 0
-10 -4 -10 -10z"/>
<path d="M4504 4512 c-138 -52 -207 -135 -234 -283 -11 -62 2 -214 20 -233 6
-6 31 11 63 41 29 28 64 54 78 58 13 4 49 20 80 35 30 15 78 35 106 44 46 15
90 46 67 46 -5 0 -3 4 5 9 8 5 71 10 140 11 161 3 166 3 196 -4 22 -6 24 -9
15 -27 -9 -16 -8 -20 2 -18 21 4 59 -12 53 -22 -4 -5 8 -9 24 -9 20 0 31 -5
31 -14 0 -22 -19 -29 -37 -14 -15 11 -16 11 -10 -4 3 -10 2 -18 -4 -18 -6 0
-8 -4 -4 -9 3 -5 1 -12 -4 -15 -5 -4 -13 -1 -17 5 -3 6 -1 15 6 19 17 11 2 33
-17 26 -9 -4 -21 -2 -28 4 -17 14 -170 20 -187 8 -10 -8 -10 -11 0 -15 21 -8
13 -25 -9 -18 -14 5 -19 3 -15 -3 3 -6 2 -13 -4 -17 -5 -3 -10 0 -10 7 0 8 -3
9 -8 3 -4 -5 -17 -16 -30 -23 -21 -12 -26 -11 -42 8 -17 20 -50 19 -50 -2 0
-5 5 -6 10 -3 25 16 5 -13 -41 -58 -53 -52 -59 -71 -13 -40 16 10 25 12 21 6
-5 -7 -4 -21 2 -30 7 -14 3 -23 -21 -45 -16 -14 -28 -31 -25 -35 3 -5 -5 -17
-18 -27 -24 -18 -52 -72 -42 -82 3 -3 12 7 20 23 8 15 40 54 71 85 31 31 56
61 56 65 0 5 9 9 20 9 26 0 25 -11 -2 -30 -33 -23 -11 -19 28 5 19 11 40 19
47 16 8 -3 5 -8 -8 -13 -34 -14 -95 -71 -119 -112 -6 -11 -20 -32 -30 -48 -61
-91 -85 -133 -91 -157 -4 -15 -11 -27 -16 -27 -5 0 -9 -5 -9 -11 0 -8 5 -8 15
1 8 7 15 18 15 25 0 8 11 27 25 43 14 17 25 33 25 36 0 8 37 63 64 94 11 12
17 22 15 22 -3 0 16 23 41 50 25 28 52 50 58 50 7 0 12 5 12 10 0 6 8 13 18
17 9 3 29 14 43 25 15 10 44 20 65 23 22 4 46 8 54 10 26 8 105 -21 108 -39 2
-9 -1 -16 -7 -16 -6 0 -11 5 -11 12 0 6 -3 9 -6 6 -3 -3 0 -15 8 -27 10 -16
10 -23 0 -33 -15 -15 -16 -38 0 -38 6 0 8 3 5 7 -4 3 1 12 10 18 11 9 18 29
19 61 1 27 7 50 13 52 6 2 11 12 11 22 0 33 12 50 35 50 25 0 35 -17 35 -62 0
-21 -6 -31 -19 -35 -14 -3 -22 -17 -27 -46 -3 -23 -11 -45 -17 -49 -6 -4 -9
-10 -5 -13 3 -3 13 1 22 10 15 15 17 15 32 1 8 -9 21 -16 27 -16 7 0 4 -5 -5
-11 -20 -11 -24 -29 -7 -29 6 0 17 -7 26 -15 22 -23 30 -9 8 15 -18 20 -17 20
7 20 27 0 67 -35 48 -42 -8 -2 -7 -16 4 -48 9 -25 16 -57 16 -71 0 -14 3 -29
7 -33 5 -4 9 -26 10 -49 1 -23 4 -54 7 -69 3 -15 1 -30 -5 -34 -7 -4 -6 -10 1
-19 8 -9 8 -15 0 -20 -6 -3 -8 -10 -5 -15 2 -4 7 -59 10 -121 6 -126 20 -201
45 -239 9 -14 50 -86 90 -160 40 -74 81 -144 90 -155 27 -30 43 -94 39 -156
-4 -49 -2 -54 17 -54 15 0 19 5 16 22 -3 14 3 25 16 32 18 9 21 8 19 -9 -1
-11 -4 -20 -8 -20 -4 0 -9 -9 -12 -20 -3 -12 -14 -20 -27 -20 -11 0 -18 -4
-15 -10 3 -6 -1 -7 -9 -4 -11 4 -16 0 -16 -10 0 -26 36 -19 75 15 42 37 59 31
24 -9 -14 -15 -31 -39 -39 -54 -7 -16 -17 -28 -21 -28 -4 0 -18 -21 -31 -47
-13 -27 -31 -57 -41 -68 -15 -17 -16 -20 -2 -28 25 -13 39 -3 54 39 7 22 22
51 33 66 10 15 24 42 30 60 6 18 17 40 24 48 16 19 56 121 50 127 -2 2 -10
-11 -17 -30 l-12 -34 -32 60 c-18 33 -42 70 -54 83 -11 12 -21 25 -21 30 0 4
-18 31 -40 60 -22 29 -40 58 -40 63 0 5 -6 16 -13 23 -11 12 -74 136 -124 243
-14 32 -18 64 -18 157 0 64 -3 114 -7 111 -11 -6 -10 9 2 27 8 13 9 13 13 0 2
-8 9 -29 14 -47 8 -23 8 -33 -1 -37 -8 -3 -7 -7 2 -14 7 -5 15 -28 18 -53 3
-24 11 -57 18 -74 40 -94 43 -111 11 -85 -13 11 -15 9 -13 -14 1 -14 6 -26 10
-26 4 0 8 -6 8 -14 0 -7 7 -19 15 -26 8 -7 14 -18 13 -24 -3 -19 14 -60 38
-89 13 -16 24 -25 24 -22 0 4 7 2 15 -5 23 -19 19 4 -11 68 -35 73 -56 134
-44 127 6 -3 10 1 10 9 0 18 -20 32 -21 14 -1 -20 -18 24 -18 47 l0 20 10 -20
c6 -14 8 2 4 50 -7 86 -14 115 -27 115 -6 0 -7 -11 -4 -25 5 -19 2 -25 -10
-25 -12 0 -15 7 -12 29 2 17 1 28 -4 25 -4 -3 -8 30 -8 73 -1 43 -5 97 -9 120
-5 23 -5 40 0 38 11 -7 2 178 -12 228 -11 42 -54 112 -83 136 -9 8 -16 18 -16
24 0 5 22 -13 49 -41 28 -29 52 -52 54 -52 8 0 4 81 -4 86 -13 7 1 34 18 34
26 0 113 -101 149 -172 19 -38 36 -68 38 -68 2 0 -5 29 -17 65 -12 36 -26 65
-33 65 -7 0 -22 19 -34 43 l-22 42 27 -25 28 -25 -7 25 c-5 14 -8 33 -9 42 -1
9 -4 16 -7 16 -3 0 -12 0 -20 1 -13 1 -13 2 0 12 12 8 10 9 -7 4 -15 -4 -28 1
-42 16 -17 19 -21 20 -26 6 -6 -13 -13 -12 -56 10 -55 29 -60 39 -10 22 17 -6
39 -8 48 -5 13 5 14 4 3 -9 -7 -8 -8 -15 -2 -15 17 0 21 25 7 49 -11 22 -12
22 -19 5 -7 -18 -9 -17 -17 4 -5 13 -7 28 -3 33 3 5 0 9 -5 9 -11 0 -15 -13
-12 -38 2 -11 -2 -11 -21 -1 -20 11 -20 14 -5 17 9 2 17 7 17 12 0 5 12 21 28
36 l27 26 -30 -15 c-18 -8 -46 -12 -70 -9 -32 4 -36 6 -20 13 17 6 16 8 -8 8
-16 1 -37 -4 -48 -10 -16 -8 -26 -5 -51 16 -17 14 -37 24 -44 21 -7 -3 -17 1
-21 8 -5 8 -17 16 -28 20 -11 3 6 4 37 1 32 -2 60 1 63 6 8 13 -131 149 -197
193 -30 20 -89 51 -129 68 -64 26 -89 31 -184 35 -90 3 -119 0 -161 -15z m376
-372 c0 -5 -4 -10 -10 -10 -5 0 -10 5 -10 10 0 6 5 10 10 10 6 0 10 -4 10 -10z
m129 -16 c17 -4 31 -12 31 -19 0 -20 -35 -24 -92 -10 -45 11 -48 13 -20 14 17
1 32 6 32 11 0 12 7 12 49 4z m-119 -44 c0 -5 -11 -12 -25 -16 -14 -3 -23 -10
-20 -14 3 -5 -4 -6 -15 -3 -11 3 -20 1 -20 -4 0 -11 -101 -62 -133 -68 -20 -4
-21 -3 -4 9 18 14 24 32 7 21 -5 -3 -10 -1 -10 4 0 6 7 11 15 11 8 0 15 -5 15
-11 0 -6 13 0 28 13 16 13 51 32 78 42 27 10 53 22 58 27 10 9 26 2 26 -11z
m-170 -35 c-7 -9 -15 -13 -17 -11 -7 7 7 26 19 26 6 0 6 -6 -2 -15z m337 9
c-3 -3 -12 -4 -19 -1 -8 3 -5 6 6 6 11 1 17 -2 13 -5z m-88 -20 c2 -2 -5 -4
-15 -4 -11 0 -35 -11 -54 -25 -19 -14 -39 -25 -44 -25 -6 0 -5 4 2 9 9 5 4 8
-16 7 -17 -1 -28 -4 -26 -7 5 -9 -22 -19 -49 -19 -36 0 41 42 81 45 18 1 41 9
50 17 15 14 56 14 71 2z m51 12 c0 -2 -9 -6 -20 -9 -11 -3 -20 -1 -20 4 0 5 9
9 20 9 11 0 20 -2 20 -4z m315 -33 c17 -39 12 -50 -19 -50 -32 0 -56 12 -56
30 0 5 8 3 19 -7 15 -14 20 -14 30 -3 6 8 9 22 5 31 -8 22 12 21 21 -1z m-33
-183 c17 -17 27 -34 24 -38 -4 -3 -23 10 -42 31 -42 44 -26 50 18 7z m38 -104
c0 -6 -7 -2 -15 8 -8 11 -15 25 -15 30 0 6 7 2 15 -8 8 -11 15 -25 15 -30z
m34 18 c4 -10 1 -14 -6 -12 -15 5 -23 28 -10 28 5 0 13 -7 16 -16z m-10 -191
c1 -62 -2 -113 -6 -113 -4 0 -8 25 -8 55 0 33 -4 55 -11 55 -6 0 -8 11 -4 29
3 16 7 52 7 81 3 99 20 13 22 -107z m80 -311 c2 -4 1 -14 -3 -21 -6 -9 -10 -7
-14 8 -5 20 7 29 17 13z m14 -164 c0 -7 4 -24 7 -38 6 -23 5 -23 -13 5 -18 29
-20 45 -3 45 4 0 8 -6 9 -12z m36 -85 c3 -10 9 -24 12 -31 5 -11 2 -12 -15 -3
-11 7 -21 21 -21 31 0 25 16 26 24 3z"/>
<path d="M4776 4221 c-3 -5 6 -8 20 -8 19 0 22 2 13 8 -18 11 -26 11 -33 0z"/>
<path d="M4843 4223 c9 -2 23 -2 30 0 6 3 -1 5 -18 5 -16 0 -22 -2 -12 -5z"/>
<path d="M4980 4218 c0 -14 30 -22 41 -11 7 7 2 12 -15 15 -14 3 -26 1 -26 -4z"/>
<path d="M4700 4200 c0 -5 4 -10 9 -10 6 0 13 5 16 10 3 6 -1 10 -9 10 -9 0
-16 -4 -16 -10z"/>
<path d="M5190 4199 c0 -5 5 -7 10 -4 6 3 10 8 10 11 0 2 -4 4 -10 4 -5 0 -10
-5 -10 -11z"/>
<path d="M5300 4197 l-35 -11 29 -4 c40 -5 98 7 91 19 -8 12 -40 10 -85 -4z"/>
<path d="M4605 4151 c-22 -10 -49 -28 -59 -40 -23 -25 -15 -27 19 -5 13 9 30
17 38 18 7 1 26 11 43 23 36 28 14 30 -41 4z"/>
<path d="M4683 4154 c-7 -3 -9 -12 -6 -21 4 -11 2 -14 -5 -9 -7 4 -12 3 -12
-2 0 -6 -11 -13 -24 -16 -13 -3 -26 -12 -29 -20 -4 -10 3 -9 31 5 20 9 49 22
65 28 32 12 37 32 5 23 -14 -3 -19 -2 -14 6 8 13 7 13 -11 6z"/>
<path d="M5516 4085 c14 -19 28 -35 31 -35 9 0 -32 60 -44 65 -8 2 -2 -11 13
-30z"/>
<path d="M4494 3996 c-37 -34 -46 -48 -37 -57 14 -14 33 -4 33 17 0 8 5 12 10
9 11 -7 70 47 70 64 0 22 -28 10 -76 -33z"/>
<path d="M5609 3976 c29 -31 35 -33 22 -7 -6 10 -18 22 -28 25 -13 5 -11 1 6
-18z"/>
<path d="M4940 3955 c-44 -25 -71 -35 -81 -29 -5 3 -9 0 -9 -5 0 -6 -6 -11
-14 -11 -15 0 -96 -72 -96 -86 0 -4 -8 -17 -17 -28 -10 -11 9 3 42 33 33 29
95 69 137 89 43 20 78 40 78 45 0 11 -12 8 -40 -8z"/>
<path d="M4993 3944 c-3 -9 -26 -24 -50 -35 -25 -10 -41 -23 -38 -29 4 -6 3
-9 -2 -8 -13 4 -55 -22 -98 -60 -56 -51 -112 -127 -131 -181 -29 -85 -46 -112
-61 -100 -9 8 -13 8 -13 1 0 -6 5 -14 10 -17 6 -3 10 -11 10 -17 0 -6 -6 -6
-15 2 -13 10 -18 11 -28 1 -9 -10 -8 -11 6 -6 21 9 22 -4 1 -33 -14 -20 -14
-22 0 -22 20 0 20 -3 -4 -42 -11 -18 -20 -40 -20 -48 0 -13 29 41 83 160 37
79 104 198 127 226 35 40 196 154 220 154 10 0 26 8 36 17 16 17 16 18 -7 24
-16 5 -18 7 -6 8 21 1 23 21 2 21 -9 0 -18 -7 -22 -16z"/>
<path d="M5400 3909 c-14 -25 6 -57 24 -39 19 19 105 -108 89 -134 -3 -5 -1
-6 5 -2 13 8 16 56 4 56 -4 0 -20 27 -35 60 -16 33 -34 60 -42 60 -8 0 -15 5
-15 10 0 17 -19 11 -30 -11z"/>
<path d="M4659 3863 c-13 -16 -12 -17 4 -4 16 13 21 21 13 21 -2 0 -10 -8 -17
-17z"/>
<path d="M4974 3871 c4 -5 -7 -12 -24 -16 -21 -5 -30 -13 -30 -26 0 -11 -10
-23 -22 -28 -25 -10 -67 -51 -52 -51 5 -1 -1 -6 -12 -13 -41 -23 -102 -110
-145 -207 -11 -25 -28 -63 -39 -85 -21 -47 -82 -203 -101 -260 -21 -61 -73
-146 -116 -187 -42 -40 -144 -98 -183 -103 -14 -2 -42 -6 -62 -10 -60 -11 -45
1 40 31 88 32 116 52 102 74 -8 13 -10 13 -10 1 0 -8 -3 -11 -7 -8 -3 4 -14 0
-24 -9 -10 -9 -25 -14 -34 -11 -8 4 -14 1 -12 -5 1 -7 -6 -14 -15 -16 -12 -2
-18 3 -18 13 0 21 -80 -42 -81 -64 0 -10 -2 -12 -6 -4 -2 7 5 29 17 48 19 30
19 34 4 28 -18 -7 -18 -7 11 54 11 24 23 43 28 43 4 0 39 32 77 71 87 88 178
220 210 305 17 43 -8 17 -36 -39 -40 -78 -92 -143 -198 -245 -53 -51 -96 -95
-96 -98 0 -3 -12 -21 -26 -40 l-26 -34 7 -185 c4 -102 11 -185 16 -185 5 0 10
17 10 38 2 51 0 164 -3 182 -2 8 1 16 7 18 5 1 10 -15 12 -37 1 -22 8 -59 14
-83 20 -78 22 -98 10 -98 -6 0 -11 -12 -11 -26 0 -16 4 -23 12 -18 7 5 8 3 3
-5 -4 -7 -2 -23 5 -36 11 -20 9 -33 -11 -87 -13 -35 -22 -67 -20 -73 2 -5 4
-16 4 -22 0 -7 4 -13 7 -13 11 0 34 -60 36 -90 0 -14 6 -36 11 -50 6 -14 14
-40 18 -57 3 -18 11 -33 16 -33 6 0 9 -6 8 -12 -4 -21 12 -68 21 -63 4 3 2 22
-6 42 -16 46 -17 63 -4 63 6 0 10 -6 10 -12 0 -7 16 -44 35 -82 19 -39 35 -77
35 -86 0 -9 10 -25 23 -36 12 -10 19 -15 15 -10 -4 5 -2 18 4 30 12 23 18 143
6 123 -5 -8 -8 -7 -8 5 0 9 5 20 10 23 15 9 12 25 -3 19 -14 -5 -18 8 -18 60
0 31 11 48 18 29 2 -7 10 -10 16 -7 7 2 22 -4 34 -15 12 -11 23 -16 25 -10 4
12 54 -12 85 -41 12 -11 25 -20 29 -20 3 0 17 -9 31 -20 14 -11 40 -20 57 -20
l31 1 -40 34 c-22 19 -39 39 -38 45 2 5 -3 7 -10 4 -13 -5 -57 30 -57 46 0 5
-22 32 -50 60 -27 28 -50 56 -50 62 0 6 -3 9 -6 6 -3 -4 0 -17 7 -29 7 -14
-12 -2 -50 31 -33 29 -61 57 -61 62 0 5 -4 6 -10 3 -5 -3 -10 -1 -10 5 0 7
-11 25 -25 42 -13 16 -33 57 -44 91 -11 34 -27 79 -36 100 -9 21 -17 64 -18
96 -1 48 3 62 27 93 28 38 79 59 98 40 6 -6 19 -5 36 4 14 7 28 11 31 10 3 -2
12 2 19 10 7 8 8 14 2 14 -5 0 -10 3 -10 8 0 14 90 103 99 97 5 -3 7 4 4 15
-3 11 0 20 6 20 6 0 21 22 32 49 20 45 24 48 48 42 14 -4 44 -4 66 0 22 3 36
7 30 9 -23 6 -31 7 -52 8 -31 3 -29 20 2 28 29 7 156 -26 149 -38 -3 -4 2 -8
10 -8 9 0 16 -6 17 -12 0 -7 7 5 15 27 18 49 10 80 -13 50 -15 -20 -15 -20
-26 0 -19 31 -68 75 -78 69 -5 -3 -12 2 -15 10 -4 10 -18 16 -35 16 -22 0 -29
5 -29 20 0 17 4 19 28 14 15 -4 54 -19 87 -34 145 -66 147 3 3 75 -78 39 -88
48 -66 61 7 5 8 2 3 -7 -5 -8 -4 -11 1 -6 4 4 7 24 5 43 -2 32 12 48 22 22 2
-8 8 -9 13 -4 5 5 4 11 -3 13 -23 8 -14 25 10 19 12 -3 16 -3 10 0 -15 7 -17
34 -3 34 5 0 7 6 4 14 -3 8 -1 17 4 20 5 3 12 -4 16 -17 5 -21 7 -20 25 13 11
21 15 39 10 45 -12 12 -12 28 0 21 10 -7 25 22 22 41 -2 14 38 27 83 27 33 0
128 45 134 64 3 8 -11 12 -49 12 -51 0 -53 1 -31 16 12 8 26 12 32 9 5 -3 19
-1 31 6 l22 11 -28 24 c-29 25 -40 30 -31 15z m-594 -955 c0 -7 -8 -16 -17
-20 -10 -3 -24 -9 -30 -12 -7 -3 -13 -1 -13 5 0 6 6 11 14 11 7 0 19 7 26 15
15 19 20 19 20 1z"/>
<path d="M5690 3875 c0 -5 5 -17 10 -25 5 -8 10 -10 10 -5 0 6 -5 17 -10 25
-5 8 -10 11 -10 5z"/>
<path d="M5642 3850 c0 -14 2 -19 5 -12 2 6 2 18 0 25 -3 6 -5 1 -5 -13z"/>
<path d="M4601 3798 c-59 -79 -129 -198 -117 -198 1 0 18 24 38 53 19 28 53
81 77 116 48 72 50 93 2 29z"/>
<path d="M5040 3829 c0 -5 5 -7 10 -4 6 3 10 8 10 11 0 2 -4 4 -10 4 -5 0 -10
-5 -10 -11z"/>
<path d="M4462 3800 c-12 -16 -27 -42 -32 -57 -10 -27 -9 -27 6 -8 17 22 57
95 51 95 -2 0 -13 -13 -25 -30z"/>
<path d="M5108 3813 c-6 -28 11 -97 27 -109 8 -6 15 -14 15 -18 0 -13 44 -45
63 -46 9 0 17 -4 17 -10 0 -5 -7 -6 -17 -3 -11 4 -14 3 -9 -5 4 -6 2 -22 -4
-34 -11 -23 -11 -23 10 1 11 13 23 22 25 19 3 -3 7 -73 9 -157 l3 -153 -31
-13 c-25 -10 -89 -21 -148 -25 -13 0 -9 -40 5 -45 12 -5 86 -12 140 -14 15 -1
27 -6 27 -11 0 -6 -18 -10 -42 -9 -54 3 -85 -7 -116 -36 -36 -33 -23 -52 40
-60 80 -11 118 -30 174 -90 58 -61 73 -87 46 -79 -9 3 -6 -2 8 -10 16 -10 19
-16 10 -16 -12 0 -11 -3 3 -11 9 -5 17 -14 17 -19 0 -5 -8 -11 -17 -14 -10 -3
-5 -4 10 -2 15 2 26 1 23 -1 -2 -3 13 -38 35 -80 21 -41 39 -83 39 -92 0 -9 5
-22 12 -29 8 -8 9 -18 1 -34 -6 -13 -16 -36 -22 -53 -7 -16 -34 -54 -60 -82
-27 -29 -43 -53 -36 -53 7 0 11 -10 9 -27 -4 -36 -101 -127 -173 -161 -45 -22
-83 -59 -67 -65 7 -3 20 1 31 9 21 16 39 19 31 5 -3 -5 -6 -87 -6 -183 -1
-168 -12 -254 -33 -241 -6 3 -7 1 -3 -5 4 -7 -13 -31 -39 -58 -26 -25 -43 -49
-40 -52 4 -4 26 14 50 41 24 26 45 47 48 47 3 0 5 -15 6 -32 0 -38 7 -73 17
-89 15 -25 32 -154 21 -167 -7 -9 -6 -11 7 -6 19 7 19 8 6 -36 -6 -19 -13 -62
-17 -95 -5 -56 -16 -103 -41 -183 -6 -18 -7 -30 -1 -27 5 4 9 3 9 -2 7 -120
25 -168 70 -179 42 -11 51 -23 32 -43 -9 -10 -20 -16 -24 -14 -5 2 -8 -6 -8
-19 0 -16 11 -29 40 -45 l40 -21 -4 66 c-2 37 -7 80 -11 96 -5 19 -4 31 5 36
7 4 14 28 15 51 2 24 5 60 9 79 3 19 8 53 10 75 2 22 8 51 14 64 8 22 10 20
15 -25 13 -110 -3 -281 -40 -409 -28 -99 -30 -124 -11 -137 9 -6 6 -7 -8 -3
-17 4 -23 0 -27 -17 -23 -95 -38 -155 -44 -168 -4 -8 -7 -22 -8 -30 -1 -8 -5
-26 -9 -40 l-8 -25 16 22 c9 12 30 65 46 117 35 114 46 136 66 136 14 0 14 2
0 16 -17 17 -21 40 -8 48 5 3 8 21 7 41 0 24 3 34 11 31 12 -4 17 21 26 124 2
19 7 41 11 48 5 6 5 12 0 12 -4 0 -7 52 -5 114 3 100 6 116 21 121 20 6 55 44
84 88 39 61 89 16 89 -83 1 -62 9 -75 28 -41 7 14 6 21 -2 23 -9 3 -8 10 5 22
21 21 22 52 3 88 -10 20 -11 28 -3 31 9 3 8 12 -3 33 -9 16 -20 27 -24 24 -5
-3 -13 11 -20 30 -17 53 -110 97 -179 83 -38 -8 -45 -29 -18 -57 13 -14 19
-29 15 -40 -5 -12 -2 -15 10 -10 22 8 34 -25 15 -40 -9 -6 -18 -19 -22 -28 -3
-10 -11 -18 -17 -18 -7 0 -5 9 4 22 23 32 20 44 -5 22 -25 -22 -63 -93 -55
-102 3 -3 -16 -28 -43 -57 -38 -40 -48 -57 -44 -76 3 -16 -1 -30 -11 -38 -14
-11 -16 -11 -17 5 -2 30 2 47 16 76 9 20 10 28 1 31 -8 3 -8 7 0 18 6 8 16 28
22 44 6 17 11 22 11 13 1 -10 9 -22 20 -27 17 -10 19 -6 17 43 -1 42 -4 52
-13 44 -7 -6 -13 -8 -13 -5 0 9 53 102 68 120 8 9 12 20 8 24 -4 4 -11 2 -15
-5 -5 -9 -17 -11 -34 -6 -36 8 -34 24 2 24 16 0 34 6 40 13 11 14 5 27 -13 27
-6 0 -5 -4 2 -9 10 -6 7 -10 -13 -15 -37 -9 -45 2 -17 24 12 10 22 24 22 32 0
10 3 9 10 -2 8 -13 10 -13 10 1 0 9 6 19 14 22 17 7 57 -3 52 -12 -2 -3 19 -6
47 -6 29 0 64 -3 78 -7 24 -7 27 -4 37 31 16 53 15 72 -3 65 -8 -4 -15 -12
-15 -19 0 -15 -27 -14 -57 3 -26 14 -30 32 -8 32 8 0 15 5 15 11 0 6 -11 4
-27 -5 -55 -29 -94 -39 -105 -28 -15 15 28 55 52 47 12 -4 24 2 34 17 17 24
22 88 7 88 -6 0 -38 -23 -71 -51 -34 -28 -64 -48 -68 -44 -4 4 2 12 13 19 33
19 115 100 115 114 0 7 7 15 15 18 8 4 12 10 9 15 -3 5 -1 9 5 9 12 0 55 59
48 66 -3 3 -23 -13 -44 -37 -81 -91 -187 -169 -227 -169 -23 0 -25 -3 53 62
11 9 33 24 49 32 16 8 35 22 43 32 14 17 20 64 8 64 -10 0 -30 114 -27 154 1
20 6 36 11 36 4 0 5 5 2 11 -9 14 3 61 14 54 5 -3 7 4 4 15 -5 19 16 80 28 80
3 0 11 -11 17 -25 12 -27 16 -28 47 -16 18 7 15 11 -22 37 -27 19 -42 37 -43
51 0 12 -6 28 -14 36 -9 8 -11 19 -6 27 4 7 6 19 3 27 -7 17 25 103 38 103 6
0 8 4 4 9 -3 6 0 13 7 18 26 16 58 72 52 90 -6 15 -4 15 9 -2 23 -28 21 -7 -3
43 -11 22 -20 45 -20 49 1 12 40 -40 40 -53 0 -6 7 -18 16 -25 32 -26 4 32
-50 106 -63 85 -157 228 -181 274 -27 54 -56 150 -53 179 1 15 -1 104 -6 197
-7 154 -26 273 -46 300 -4 6 -13 26 -19 46 -14 43 -35 65 -73 74 -21 5 -27 3
-30 -12z m387 -1073 c-3 -5 -10 -10 -16 -10 -5 0 -9 5 -9 10 0 6 7 10 16 10 8
0 12 -4 9 -10z m5 -40 c10 -19 10 -20 -9 -8 -11 6 -17 16 -15 20 8 12 12 10
24 -12z m104 -1335 c3 -8 1 -15 -4 -15 -6 0 -10 7 -10 15 0 8 2 15 4 15 2 0 6
-7 10 -15z m-234 -63 c0 -4 -9 -13 -20 -20 -19 -12 -20 -11 -8 8 13 20 28 27
28 12z m-46 -191 c-8 -24 -13 -50 -10 -58 3 -7 1 -13 -4 -13 -6 0 -10 -5 -10
-11 0 -6 7 -9 15 -5 13 4 14 2 5 -14 -6 -11 -14 -20 -19 -20 -9 0 -75 80 -70
84 2 1 19 8 37 16 18 7 40 25 49 41 23 38 25 32 7 -20z"/>
<path d="M5060 3790 c0 -5 5 -10 10 -10 6 0 10 5 10 10 0 6 -4 10 -10 10 -5 0
-10 -4 -10 -10z"/>
<path d="M5019 3754 c-6 -8 -8 -18 -4 -22 4 -4 10 -2 12 5 3 8 11 8 30 -2 31
-16 53 -8 26 9 -32 22 -51 25 -64 10z"/>
<path d="M5245 3740 c10 -11 19 -20 21 -20 1 0 0 9 -3 20 -3 11 -12 20 -21 20
-13 0 -12 -3 3 -20z"/>
<path d="M4950 3716 c0 -2 7 -7 16 -10 8 -3 12 -2 9 4 -6 10 -25 14 -25 6z"/>
<path d="M5521 3699 c0 -13 4 -33 9 -44 7 -15 8 -11 6 17 -3 42 -16 65 -15 27z"/>
<path d="M5614 3693 c1 -16 9 -41 19 -58 14 -26 16 -27 17 -9 0 21 -26 94 -34
94 -2 0 -3 -12 -2 -27z"/>
<path d="M5441 3705 c1 -19 18 -51 18 -35 0 8 -4 22 -9 30 -5 8 -9 11 -9 5z"/>
<path d="M4316 3692 c-9 -16 -26 -62 -21 -62 6 0 35 63 31 67 -2 3 -7 0 -10
-5z"/>
<path d="M5660 3691 c0 -5 5 -13 10 -16 6 -3 10 -2 10 4 0 5 -4 13 -10 16 -5
3 -10 2 -10 -4z"/>
<path d="M5591 3674 c0 -11 3 -14 6 -6 3 7 2 16 -1 19 -3 4 -6 -2 -5 -13z"/>
<path d="M5281 3636 c-1 -26 2 -37 9 -30 6 6 6 21 1 39 -9 30 -9 30 -10 -9z"/>
<path d="M4195 3640 c-3 -5 -1 -10 4 -10 6 0 11 5 11 10 0 6 -2 10 -4 10 -3 0
-8 -4 -11 -10z"/>
<path d="M4373 3613 c-10 -34 -10 -36 3 -19 12 17 20 56 11 56 -1 0 -7 -17
-14 -37z"/>
<path d="M4588 3615 c-10 -13 -25 -45 -34 -72 -9 -26 -25 -60 -35 -75 -11 -14
-22 -41 -25 -60 l-5 -33 15 25 c8 14 28 57 42 95 15 39 36 85 47 103 23 39 19
50 -5 17z"/>
<path d="M5160 3599 c0 -5 5 -7 10 -4 6 3 10 8 10 11 0 2 -4 4 -10 4 -5 0 -10
-5 -10 -11z"/>
<path d="M4161 3557 c-7 -21 -11 -40 -8 -43 7 -7 29 54 25 68 -3 7 -10 -4 -17
-25z"/>
<path d="M5511 3564 c0 -11 3 -14 6 -6 3 7 2 16 -1 19 -3 4 -6 -2 -5 -13z"/>
<path d="M5631 3547 c-1 -23 -5 -36 -11 -32 -5 3 -10 -3 -10 -14 0 -27 11 -52
20 -46 4 3 6 -14 4 -37 -3 -36 -2 -39 6 -18 8 20 9 15 6 -25 -3 -27 -2 -43 1
-35 3 8 11 22 18 30 17 20 28 131 16 161 -10 24 -10 24 -12 2 -3 -37 -4 -41
-11 -49 -5 -4 -8 6 -9 22 -1 16 -5 40 -9 54 -7 22 -8 21 -9 -13z"/>
<path d="M5561 3554 c0 -11 3 -14 6 -6 3 7 2 16 -1 19 -3 4 -6 -2 -5 -13z"/>
<path d="M5707 3478 c8 -44 13 -48 13 -10 0 17 -4 34 -10 37 -6 4 -7 -6 -3
-27z"/>
<path d="M5571 3484 c0 -11 3 -14 6 -6 3 7 2 16 -1 19 -3 4 -6 -2 -5 -13z"/>
<path d="M4120 3453 c-23 -63 -33 -83 -40 -83 -4 0 -12 -11 -18 -25 -12 -27
-4 -33 18 -12 7 6 4 -1 -8 -17 -47 -62 -64 -159 -65 -358 0 -113 -2 -135 -13
-121 -10 15 -11 14 -7 -12 2 -17 9 -50 14 -75 27 -130 35 -230 18 -241 -12 -7
-11 -11 3 -25 15 -15 18 -14 37 24 21 42 31 113 11 82 -6 -9 -10 -10 -10 -3 0
6 5 15 10 18 13 8 13 139 1 183 -19 66 -23 167 -7 208 8 21 17 59 20 82 4 27
22 67 46 102 22 33 40 62 40 65 0 9 -39 -41 -70 -87 -14 -21 -30 -38 -36 -38
-14 0 -10 68 5 83 14 14 14 40 0 32 -5 -4 10 33 35 82 44 85 58 145 36 158 -6
3 -15 -6 -20 -22z"/>
<path d="M4371 3454 c0 -11 3 -14 6 -6 3 7 2 16 -1 19 -3 4 -6 -2 -5 -13z"/>
<path d="M5811 3463 c-2 -22 21 -113 29 -118 4 -3 2 21 -6 52 -18 70 -22 82
-23 66z"/>
<path d="M5760 3414 c0 -27 5 -56 10 -64 6 -9 7 6 3 45 -7 75 -13 84 -13 19z"/>
<path d="M4203 3407 c-25 -36 -31 -56 -10 -35 21 22 48 68 40 68 -5 0 -18 -15
-30 -33z"/>
<path d="M4322 3372 c-22 -31 -63 -82 -91 -112 -56 -60 -115 -139 -109 -146 6
-5 144 134 169 171 26 38 81 145 75 145 -3 0 -23 -26 -44 -58z"/>
<path d="M5456 3400 c3 -19 12 -57 21 -83 8 -27 13 -57 10 -68 -3 -10 -1 -19
4 -19 22 0 19 34 -10 117 -17 48 -29 72 -25 53z"/>
<path d="M5500 3413 c0 -5 5 -15 10 -23 8 -12 10 -11 10 8 0 12 -4 22 -10 22
-5 0 -10 -3 -10 -7z"/>
<path d="M5221 3394 c0 -11 3 -14 6 -6 3 7 2 16 -1 19 -3 4 -6 -2 -5 -13z"/>
<path d="M3886 3369 c-23 -47 -19 -61 5 -16 11 22 18 41 16 44 -3 2 -12 -10
-21 -28z"/>
<path d="M4521 3322 c-12 -26 -26 -55 -32 -64 -12 -24 -12 -45 1 -32 11 11 62
136 57 141 -2 1 -14 -18 -26 -45z"/>
<path d="M3970 3339 c0 -5 -4 -7 -10 -4 -5 3 -10 1 -10 -6 0 -7 -8 -21 -17
-31 -15 -17 -15 -20 -3 -28 12 -8 12 -10 -4 -10 -15 0 -17 -6 -14 -30 2 -16 1
-31 -3 -32 -6 -3 -19 -67 -22 -105 0 -7 -4 -13 -9 -13 -4 0 -8 -25 -8 -55 0
-29 -5 -76 -10 -103 -10 -43 -15 -78 -19 -119 -2 -19 -21 -16 -21 3 0 8 -4 13
-8 10 -5 -3 -7 -29 -6 -58 1 -29 3 -63 3 -75 1 -13 5 -23 11 -23 6 0 8 25 6
60 -2 33 0 60 5 60 4 0 8 -46 7 -101 0 -62 4 -104 11 -108 9 -6 17 -31 20 -63
1 -5 6 -8 12 -8 12 0 11 32 -7 267 -9 116 11 257 56 398 41 130 55 185 46 185
-3 0 -6 -5 -6 -11z"/>
<path d="M4423 3273 c-49 -73 -55 -83 -49 -83 7 0 97 132 93 137 -3 2 -22 -22
-44 -54z"/>
<path d="M4132 3296 c-17 -37 -15 -45 4 -18 8 12 14 27 12 33 -2 6 -9 -1 -16
-15z"/>
<path d="M5650 3304 c0 -8 5 -12 10 -9 6 3 10 10 10 16 0 5 -4 9 -10 9 -5 0
-10 -7 -10 -16z"/>
<path d="M5797 3300 c-14 -32 -13 -135 2 -126 5 3 5 21 1 40 -4 20 -3 39 2 44
5 5 8 20 6 33 -3 18 -6 20 -11 9z"/>
<path d="M5370 3291 c0 -6 4 -13 10 -16 6 -3 7 1 4 9 -7 18 -14 21 -14 7z"/>
<path d="M5672 3238 c5 -18 16 -75 24 -127 8 -52 15 -96 17 -97 2 -2 4 31 4
74 0 51 -2 69 -7 52 -6 -18 -8 -7 -9 41 -1 59 -12 89 -32 89 -4 0 -3 -15 3
-32z"/>
<path d="M4800 3250 c0 -5 7 -10 15 -10 8 0 15 5 15 10 0 6 -7 10 -15 10 -8 0
-15 -4 -15 -10z"/>
<path d="M5370 3239 c0 -11 5 -29 10 -39 6 -10 11 -30 12 -44 1 -15 6 -26 10
-26 4 0 5 15 2 33 -3 17 -8 47 -11 65 -6 35 -23 44 -23 11z"/>
<path d="M3838 3227 c-3 -19 -2 -25 4 -19 6 6 8 18 6 28 -3 14 -5 12 -10 -9z"/>
<path d="M5887 3160 c3 -30 14 -75 25 -100 10 -25 16 -34 13 -20 -4 14 -11 43
-16 65 -5 22 -13 56 -19 75 -8 30 -8 27 -3 -20z"/>
<path d="M5525 3170 c4 -19 11 -39 16 -44 4 -5 3 8 -2 30 -14 50 -24 60 -14
14z"/>
<path d="M4440 3182 c0 -5 -16 -27 -36 -50 -19 -23 -33 -42 -29 -42 3 0 18 14
33 32 43 51 54 68 43 68 -6 0 -11 -4 -11 -8z"/>
<path d="M4840 3170 c0 -5 5 -10 10 -10 6 0 10 5 10 10 0 6 -4 10 -10 10 -5 0
-10 -4 -10 -10z"/>
<path d="M4313 3142 c-7 -19 -35 -47 -102 -104 -25 -21 -42 -40 -39 -43 5 -5
142 108 166 137 10 13 10 17 -3 22 -10 3 -18 -1 -22 -12z"/>
<path d="M5022 3144 c-10 -18 -4 -64 9 -64 5 0 9 18 9 40 0 43 -4 49 -18 24z"/>
<path d="M5798 3146 c-10 -10 -18 -32 -18 -49 0 -40 -27 -157 -40 -172 -12
-14 -40 -122 -40 -150 1 -33 75 175 89 250 7 38 17 75 22 82 6 6 9 22 7 34 -3
22 -4 22 -20 5z"/>
<path d="M4705 3140 c26 -11 35 -12 35 -2 0 4 -12 8 -27 9 -24 1 -25 1 -8 -7z"/>
<path d="M4840 3130 c0 -5 5 -10 11 -10 5 0 7 5 4 10 -3 6 -8 10 -11 10 -2 0
-4 -4 -4 -10z"/>
<path d="M5641 3127 c-2 -27 20 -106 31 -113 10 -6 2 38 -12 71 -5 11 -11 29
-13 40 -4 17 -5 17 -6 2z"/>
<path d="M4660 3115 c-7 -9 -8 -15 -2 -15 5 0 12 7 16 15 3 8 4 15 2 15 -2 0
-9 -7 -16 -15z"/>
<path d="M5591 3120 c-1 -20 38 -104 45 -98 2 3 -6 30 -20 59 -13 30 -25 47
-25 39z"/>
<path d="M3942 3095 c0 -16 2 -22 5 -12 2 9 2 23 0 30 -3 6 -5 -1 -5 -18z"/>
<path d="M4775 3110 c-3 -5 -1 -10 4 -10 6 0 11 5 11 10 0 6 -2 10 -4 10 -3 0
-8 -4 -11 -10z"/>
<path d="M4595 3100 c-3 -5 1 -10 9 -10 9 0 16 5 16 10 0 6 -4 10 -9 10 -6 0
-13 -4 -16 -10z"/>
<path d="M4365 3055 c-17 -13 -26 -27 -22 -31 4 -4 20 4 34 19 35 34 26 43
-12 12z"/>
<path d="M4831 3071 c-8 -5 -9 -11 -3 -15 5 -3 12 1 16 9 6 17 6 18 -13 6z"/>
<path d="M5106 3072 c-8 -14 43 -53 81 -64 52 -14 52 -1 1 21 -24 10 -52 26
-60 35 -9 9 -19 12 -22 8z"/>
<path d="M5537 3049 c4 -13 8 -18 11 -10 2 7 -1 18 -6 23 -8 8 -9 4 -5 -13z"/>
<path d="M3942 3020 c0 -19 2 -27 5 -17 2 9 2 25 0 35 -3 9 -5 1 -5 -18z"/>
<path d="M4290 3034 c-8 -8 -28 -26 -45 -40 l-30 -25 37 21 c20 12 42 28 48
35 7 8 16 12 21 9 5 -3 9 0 9 5 0 15 -22 12 -40 -5z"/>
<path d="M4766 3025 c-6 -16 10 -18 54 -6 21 6 22 8 8 14 -10 3 -20 2 -24 -4
-4 -7 -10 -6 -19 1 -9 8 -14 6 -19 -5z"/>
<path d="M5641 2994 c0 -11 3 -14 6 -6 3 7 2 16 -1 19 -3 4 -6 -2 -5 -13z"/>
<path d="M4751 2986 c-8 -9 -8 -16 -2 -20 5 -4 12 -2 16 3 3 6 13 7 23 4 18
-7 17 -5 -9 15 -13 10 -19 9 -28 -2z"/>
<path d="M4700 2975 c-7 -8 -17 -15 -23 -15 -6 0 -25 -16 -43 -37 -25 -27 -30
-39 -21 -48 7 -6 29 -32 50 -58 22 -25 46 -46 55 -46 10 0 29 -3 45 -7 33 -8
35 5 4 38 -13 14 -21 30 -19 36 2 7 -3 10 -12 6 -9 -3 -13 -10 -10 -15 3 -5
-6 -9 -21 -9 -31 0 -51 40 -35 70 5 10 10 28 10 39 0 14 6 21 19 21 24 0 32
11 22 28 -6 10 -11 9 -21 -3z"/>
<path d="M3932 2950 c0 -19 2 -27 5 -17 2 9 2 25 0 35 -3 9 -5 1 -5 -18z"/>
<path d="M4466 2971 c-12 -5 -16 -10 -9 -14 13 -8 43 2 43 14 0 10 -8 10 -34
0z"/>
<path d="M5165 2957 c23 -19 45 -22 45 -7 0 6 -6 10 -14 10 -8 0 -23 3 -33 6
-16 6 -16 5 2 -9z"/>
<path d="M5220 2946 c0 -9 5 -16 10 -16 6 0 10 4 10 9 0 6 -4 13 -10 16 -5 3
-10 -1 -10 -9z"/>
<path d="M5890 2913 c0 -26 5 -55 10 -63 7 -11 10 1 10 42 0 31 -4 60 -10 63
-6 4 -10 -12 -10 -42z"/>
<path d="M4713 2915 c-7 -8 -9 -16 -4 -19 5 -3 12 1 15 10 8 22 4 25 -11 9z"/>
<path d="M3931 2894 c0 -11 3 -14 6 -6 3 7 2 16 -1 19 -3 4 -6 -2 -5 -13z"/>
<path d="M3893 2855 c0 -22 2 -30 4 -17 2 12 2 30 0 40 -3 9 -5 -1 -4 -23z"/>
<path d="M3931 2854 c0 -11 3 -14 6 -6 3 7 2 16 -1 19 -3 4 -6 -2 -5 -13z"/>
<path d="M5940 2853 c0 -5 -5 -26 -10 -48 -8 -36 -7 -38 6 -21 13 18 20 76 9
76 -3 0 -5 -3 -5 -7z"/>
<path d="M4595 2840 c-3 -5 1 -10 9 -10 9 0 16 5 16 10 0 6 -4 10 -9 10 -6 0
-13 -4 -16 -10z"/>
<path d="M5826 2824 c-4 -14 -5 -28 -3 -31 3 -2 8 8 11 23 4 14 5 28 3 31 -3
2 -8 -8 -11 -23z"/>
<path d="M4371 2831 c-8 -5 -9 -11 -3 -15 5 -3 12 1 16 9 6 17 6 18 -13 6z"/>
<path d="M5057 2808 c-15 -36 -13 -48 8 -48 7 0 15 -10 17 -22 4 -31 26 -34
26 -4 0 14 -6 24 -12 23 -7 -1 -10 11 -8 34 4 49 -14 58 -31 17z"/>
<path d="M5807 2773 c-4 -3 -7 -11 -7 -17 0 -6 5 -5 12 2 6 6 9 14 7 17 -3 3
-9 2 -12 -2z"/>
<path d="M4530 2755 c7 -8 17 -15 22 -15 6 0 5 7 -2 15 -7 8 -17 15 -22 15 -6
0 -5 -7 2 -15z"/>
<path d="M4827 2754 c3 -7 0 -14 -5 -14 -6 0 -10 -9 -9 -20 1 -12 8 -20 19
-20 10 0 21 -7 24 -15 9 -22 24 -18 21 5 -4 22 -17 40 -17 22 0 -6 -7 -9 -15
-6 -17 7 -21 34 -5 34 15 0 12 17 -4 23 -10 4 -13 1 -9 -9z"/>
<path d="M4916 2761 c-3 -5 11 -11 32 -13 42 -6 53 -1 32 12 -19 12 -57 13
-64 1z"/>
<path d="M4786 2733 c-6 -14 -5 -15 5 -6 7 7 10 15 7 18 -3 3 -9 -2 -12 -12z"/>
<path d="M4250 2715 c-7 -9 -8 -15 -2 -15 5 0 12 7 16 15 3 8 4 15 2 15 -2 0
-9 -7 -16 -15z"/>
<path d="M4330 2715 c-11 -13 -10 -14 4 -9 9 3 16 10 16 15 0 13 -6 11 -20 -6z"/>
<path d="M4437 2723 c-3 -5 -2 -15 2 -22 5 -7 11 -9 14 -4 3 5 2 15 -2 22 -5
7 -11 9 -14 4z"/>
<path d="M5670 2723 c0 -6 5 -15 11 -19 6 -4 9 -19 5 -38 -6 -34 6 -19 19 23
5 15 4 21 -3 17 -6 -4 -15 2 -21 11 -6 10 -11 13 -11 6z"/>
<path d="M5811 2699 c-7 -17 -11 -32 -8 -35 2 -3 10 9 17 26 17 40 8 48 -9 9z"/>
<path d="M5100 2691 c-7 -15 -6 -23 5 -35 8 -8 15 -20 15 -27 0 -10 3 -10 11
-2 13 13 4 83 -11 83 -5 0 -14 -9 -20 -19z"/>
<path d="M4493 2678 c-43 -21 -42 -62 2 -65 51 -3 126 -19 230 -49 11 -3 52
-12 90 -19 39 -7 81 -16 95 -19 14 -4 40 -7 58 -8 60 -3 37 -21 -43 -34 -22
-3 -44 -9 -50 -13 -12 -8 -40 -7 -74 4 -21 6 -22 5 -10 -8 8 -8 20 -12 26 -10
7 3 13 0 13 -6 0 -15 66 -4 154 25 l69 24 33 -21 c19 -11 34 -27 34 -35 0 -8
5 -14 10 -14 15 0 12 28 -7 58 -25 39 -44 51 -78 52 -16 0 -59 14 -93 30 -35
17 -83 33 -105 36 -23 3 -63 14 -89 25 -29 12 -75 20 -119 21 -51 1 -77 7 -94
20 -26 20 -23 20 -52 6z m364 -94 c-3 -3 -12 -4 -19 -1 -8 3 -5 6 6 6 11 1 17
-2 13 -5z m78 -24 c19 -8 19 -9 -2 -9 -12 -1 -25 4 -28 9 -7 12 2 12 30 0z"/>
<path d="M5736 2653 c-6 -14 -5 -15 5 -6 7 7 10 15 7 18 -3 3 -9 -2 -12 -12z"/>
<path d="M3816 2623 c10 -40 14 -41 14 -5 0 18 -5 32 -10 32 -6 0 -8 -11 -4
-27z"/>
<path d="M3915 2637 c-4 -10 -5 -21 -1 -24 10 -10 18 4 13 24 -4 17 -4 17 -12
0z"/>
<path d="M5150 2616 c0 -8 -3 -16 -7 -19 -5 -2 -2 -2 5 -1 6 2 12 -1 12 -7 0
-6 5 -7 11 -3 8 5 8 9 -1 14 -7 4 -9 13 -6 19 4 6 2 11 -3 11 -6 0 -11 -6 -11
-14z"/>
<path d="M5771 2603 c-1 -6 -4 -20 -7 -30 -5 -17 -5 -17 6 0 6 10 9 23 6 30
-3 9 -5 9 -5 0z"/>
<path d="M4091 2584 c0 -11 3 -14 6 -6 3 7 2 16 -1 19 -3 4 -6 -2 -5 -13z"/>
<path d="M4126 2565 c-9 -26 -7 -32 5 -12 6 10 9 21 6 23 -2 3 -7 -2 -11 -11z"/>
<path d="M4582 2569 c6 -18 86 -79 104 -79 24 0 15 29 -11 36 -14 3 -22 10
-19 15 3 5 -3 9 -13 9 -10 0 -29 7 -42 17 -18 12 -23 13 -19 2z"/>
<path d="M3920 2542 c0 -38 9 -64 21 -56 14 8 10 54 -6 70 -13 14 -15 12 -15
-14z"/>
<path d="M5170 2554 c0 -8 5 -12 10 -9 6 3 10 10 10 16 0 5 -4 9 -10 9 -5 0
-10 -7 -10 -16z"/>
<path d="M4101 2506 c-9 -10 -8 -15 2 -19 8 -3 13 3 13 14 0 23 0 23 -15 5z"/>
<path d="M4390 2510 c-9 -6 -10 -10 -3 -10 6 0 15 5 18 10 8 12 4 12 -15 0z"/>
<path d="M5497 2496 c-4 -10 -5 -21 -2 -24 9 -9 17 6 13 25 -3 17 -4 17 -11
-1z"/>
<path d="M5706 2475 c-9 -26 -7 -32 5 -12 6 10 9 21 6 23 -2 3 -7 -2 -11 -11z"/>
<path d="M4435 2469 c-4 -6 -5 -12 -2 -15 2 -3 7 2 10 11 7 17 1 20 -8 4z"/>
<path d="M4716 2467 c3 -10 9 -15 12 -12 3 3 0 11 -7 18 -10 9 -11 8 -5 -6z"/>
<path d="M3840 2453 c0 -17 8 -16 26 1 12 13 12 15 -6 13 -11 -1 -20 -7 -20
-14z"/>
<path d="M5480 2451 c0 -5 -3 -17 -7 -27 -4 -11 -2 -15 7 -12 16 5 22 36 9 44
-5 3 -9 1 -9 -5z"/>
<path d="M3980 2440 c0 -5 5 -10 11 -10 5 0 7 5 4 10 -3 6 -8 10 -11 10 -2 0
-4 -4 -4 -10z"/>
<path d="M5543 2427 c-26 -28 -35 -58 -23 -77 8 -13 10 -12 10 4 0 10 10 34
21 53 25 41 21 52 -8 20z"/>
<path d="M5790 2431 c-6 -12 -7 -21 -1 -21 10 0 24 30 17 37 -2 3 -9 -5 -16
-16z"/>
<path d="M3939 2423 c-1 -7 -2 -19 -3 -25 -1 -7 -7 -12 -14 -10 -7 1 -12 -2
-12 -7 0 -5 -16 -19 -37 -31 -26 -15 -38 -18 -43 -10 -11 18 -23 -6 -13 -25 8
-13 16 -12 59 10 49 24 128 95 107 95 -7 0 -15 -5 -19 -12 -5 -8 -10 -6 -15 8
-4 10 -8 13 -10 7z"/>
<path d="M4720 2419 c0 -5 9 -9 19 -9 11 0 28 -3 38 -7 10 -3 15 -3 12 1 -11
12 -69 25 -69 15z"/>
<path d="M5885 2410 c10 -11 20 -20 22 -20 2 0 -1 9 -7 20 -6 11 -16 20 -22
20 -6 0 -3 -9 7 -20z"/>
<path d="M5330 2401 c0 -10 19 -25 25 -20 1 2 -3 10 -11 17 -8 7 -14 8 -14 3z"/>
<path d="M4068 2358 c-26 -24 -59 -51 -73 -61 -15 -11 -24 -22 -21 -25 4 -3
17 5 31 18 21 20 25 21 25 6 0 -9 -6 -29 -14 -44 -25 -51 -27 -78 -6 -102 11
-13 20 -18 20 -12 0 6 -5 14 -10 17 -6 4 -7 11 -3 18 4 6 8 23 10 38 3 33 49
126 67 136 12 7 33 53 24 53 -2 0 -24 -19 -50 -42z"/>
<path d="M5733 2379 c-8 -8 -13 -39 -13 -73 0 -72 -8 -87 -39 -79 -19 5 -22
11 -17 34 6 33 -8 39 -24 10 -15 -30 -12 -38 16 -45 15 -4 41 -18 59 -32 35
-26 45 -29 45 -14 0 6 -7 10 -15 10 -17 0 -19 23 -5 51 6 11 10 49 8 85 -2 52
-5 63 -15 53z"/>
<path d="M3988 2353 c-10 -2 -18 -9 -18 -14 0 -13 12 -11 34 6 20 15 16 17
-16 8z"/>
<path d="M5812 2333 c5 -25 28 -28 28 -4 0 12 -6 21 -16 21 -9 0 -14 -7 -12
-17z"/>
<path d="M5782 2275 c0 -16 2 -22 5 -12 2 9 2 23 0 30 -3 6 -5 -1 -5 -18z"/>
<path d="M5819 2268 c4 -28 6 -29 9 -9 2 13 0 27 -5 32 -6 6 -7 -3 -4 -23z"/>
<path d="M3926 2235 c-26 -24 -35 -55 -15 -55 5 0 7 5 3 11 -3 6 -3 14 2 18
14 10 48 51 42 51 -3 0 -17 -11 -32 -25z"/>
<path d="M4080 2246 c0 -9 -4 -15 -9 -12 -13 8 -20 -16 -14 -50 9 -60 14 -75
23 -69 9 6 7 51 -3 62 -13 12 -7 25 9 19 12 -5 14 0 10 25 -5 35 -16 51 -16
25z"/>
<path d="M5540 2230 c0 -5 9 -14 20 -20 11 -6 20 -7 20 -3 0 5 -9 14 -20 21
-11 7 -20 8 -20 2z"/>
<path d="M5778 2195 c-2 -25 0 -45 4 -45 5 0 8 20 8 45 0 25 -2 45 -4 45 -2 0
-6 -20 -8 -45z"/>
<path d="M5495 2169 c3 -50 20 -72 27 -34 3 14 1 28 -3 31 -5 3 -9 14 -9 25 0
10 -4 19 -9 19 -5 0 -7 -18 -6 -41z"/>
<path d="M4690 2173 c-13 -15 -12 -16 4 -10 10 4 20 7 22 7 2 0 4 5 4 10 0 15
-13 12 -30 -7z"/>
<path d="M5595 2151 c-6 -26 7 -71 20 -71 3 0 5 23 5 50 0 55 -15 67 -25 21z"/>
<path d="M3865 2160 c3 -5 8 -10 11 -10 2 0 4 5 4 10 0 6 -5 10 -11 10 -5 0
-7 -4 -4 -10z"/>
<path d="M4137 2164 c-3 -4 -3 -14 2 -23 5 -9 8 -31 6 -49 -1 -24 2 -32 12
-28 17 7 17 -11 1 -17 -9 -4 -5 -12 12 -26 l25 -20 -19 -35 c-29 -54 -128 -77
-142 -34 -4 12 -23 39 -43 60 -65 69 -70 76 -64 97 3 13 1 21 -6 21 -7 0 -9 5
-6 10 3 6 1 10 -4 10 -7 0 -10 -20 -9 -49 2 -32 6 -47 14 -44 14 5 26 -35 13
-43 -5 -3 -9 -14 -9 -25 0 -18 -25 -37 -35 -28 -5 5 -17 58 -18 81 -1 13 -5
14 -14 6 -7 -6 -10 -14 -7 -19 3 -5 -4 -19 -16 -31 -14 -16 -17 -24 -8 -29 9
-6 9 -11 -1 -23 -9 -11 -10 -16 -2 -16 6 0 11 -6 11 -14 0 -7 9 -25 21 -40 11
-14 17 -30 14 -36 -3 -5 -2 -10 2 -10 13 0 36 -42 39 -70 3 -23 0 -26 -27 -24
-42 3 -46 10 -26 43 20 33 21 41 7 41 -5 0 -10 -5 -10 -11 0 -6 -13 -31 -30
-56 -34 -50 -38 -65 -13 -56 12 5 15 2 10 -10 -3 -9 -2 -19 3 -22 4 -3 10 0
12 6 4 13 37 -2 75 -35 22 -19 22 -19 33 8 5 15 10 31 10 35 0 4 7 8 15 8 17
0 20 -13 5 -22 -16 -10 -11 -25 6 -18 24 9 31 -12 30 -78 -1 -32 1 -54 5 -48
4 7 10 -2 14 -20 4 -18 4 -35 1 -38 -3 -3 -1 -14 5 -24 12 -23 -7 -103 -21
-94 -6 3 -7 -1 -4 -9 4 -9 -8 -30 -30 -52 -36 -37 -50 -68 -20 -43 14 11 15 9
12 -20 -2 -27 1 -35 19 -42 18 -6 21 -5 16 8 -7 19 13 33 49 33 14 0 29 6 31
13 4 9 8 9 16 -2 7 -11 8 -2 5 30 -5 46 -14 103 -21 129 -2 8 -6 38 -9 65 -4
39 -2 46 6 32 6 -10 14 -30 16 -45 14 -74 66 -226 115 -330 17 -38 18 -51 9
-100 -13 -73 -13 -77 5 -62 12 10 15 9 15 -4 0 -9 -7 -19 -15 -22 -17 -7 -11
-43 9 -56 16 -11 36 -10 36 2 0 5 -6 7 -14 4 -8 -3 -16 4 -19 17 -7 27 1 39
12 20 5 -8 11 -9 15 -3 3 6 1 12 -6 14 -8 3 -2 15 15 34 21 22 24 30 13 32
-12 3 -13 9 -6 27 6 15 6 27 0 30 -5 3 -7 12 -3 20 4 11 1 13 -11 9 -10 -4
-16 -1 -17 7 0 8 -2 25 -5 38 -2 13 1 31 8 39 11 13 10 15 -3 10 -13 -5 -16 0
-15 25 1 21 -4 37 -17 45 -10 8 -16 19 -14 25 1 5 -7 21 -19 34 -13 14 -26 38
-29 55 -5 23 -9 27 -16 17 -7 -11 -9 -11 -9 2 0 9 6 22 14 28 13 11 10 61 -4
61 -10 0 -32 109 -35 173 -2 29 -8 80 -15 113 -13 60 -10 94 8 94 5 0 34 -25
65 -55 31 -30 58 -55 61 -55 3 0 1 11 -6 24 -8 20 -6 37 13 90 14 43 26 62 31
54 6 -10 8 -10 8 -1 0 6 -4 14 -9 17 -5 3 -14 27 -20 53 -16 64 -32 103 -42
103 -5 0 -9 8 -9 19 0 10 -11 34 -24 54 -13 19 -22 38 -18 41 3 3 3 6 0 6 -2
0 -8 -3 -11 -6z m-117 -420 c6 -14 13 -44 16 -67 5 -39 4 -41 -10 -23 -9 11
-16 29 -16 41 0 11 -7 30 -15 41 -14 21 -11 34 7 34 5 0 13 -12 18 -26z m11
-128 c5 3 9 -1 9 -8 0 -7 3 -23 6 -35 4 -13 2 -23 -4 -23 -5 0 -13 11 -16 24
-3 13 -7 30 -9 38 -2 7 -2 10 0 5 3 -4 9 -5 14 -1z m233 -618 c-1 -13 -3 -25
-4 -28 -1 -3 -1 -14 0 -25 1 -11 -2 -16 -6 -12 -17 17 -8 83 12 87 0 0 0 -10
-2 -22z"/>
<path d="M5442 2148 c0 -13 -2 -43 -5 -67 -2 -25 0 -59 5 -75 5 -17 12 -37 14
-44 3 -10 8 -10 23 0 28 17 32 45 15 87 -8 19 -17 51 -20 71 -3 19 -8 38 -11
43 -9 15 -21 6 -21 -15z"/>
<path d="M4941 2144 c0 -11 3 -14 6 -6 3 7 2 16 -1 19 -3 4 -6 -2 -5 -13z"/>
<path d="M5065 2140 c3 -5 8 -10 11 -10 2 0 4 5 4 10 0 6 -5 10 -11 10 -5 0
-7 -4 -4 -10z"/>
<path d="M5725 2140 c3 -5 11 -10 16 -10 6 0 7 5 4 10 -3 6 -11 10 -16 10 -6
0 -7 -4 -4 -10z"/>
<path d="M3776 2124 c-24 -23 -19 -27 9 -8 14 9 25 18 25 20 0 10 -20 3 -34
-12z"/>
<path d="M3855 2107 c0 -17 6 -32 13 -34 15 -6 16 13 2 22 -8 5 -8 11 0 20 8
9 7 14 -3 18 -9 3 -13 -5 -12 -26z"/>
<path d="M4870 2130 c0 -5 5 -10 11 -10 5 0 7 5 4 10 -3 6 -8 10 -11 10 -2 0
-4 -4 -4 -10z"/>
<path d="M4970 2130 c-12 -7 -12 -11 -2 -20 6 -5 10 -7 7 -4 -3 4 0 13 6 21
13 15 10 16 -11 3z"/>
<path d="M4014 2106 c10 -16 12 -27 5 -31 -7 -5 -7 -11 0 -19 6 -7 8 -16 4
-20 -4 -4 1 -4 11 0 13 5 14 9 5 15 -10 6 -10 11 0 23 9 11 10 16 2 16 -6 0
-11 6 -11 14 0 8 -7 17 -16 20 -15 6 -15 4 0 -18z"/>
<path d="M5000 2120 c-9 -6 -10 -10 -3 -10 6 0 15 5 18 10 8 12 4 12 -15 0z"/>
<path d="M5790 2125 c0 -3 9 -22 20 -42 20 -38 27 -26 14 25 -5 18 -34 33 -34
17z"/>
<path d="M4892 2101 c-12 -10 -22 -21 -22 -25 0 -10 39 17 44 31 7 17 3 16
-22 -6z"/>
<path d="M5030 2110 c0 -5 5 -10 11 -10 5 0 7 5 4 10 -3 6 -8 10 -11 10 -2 0
-4 -4 -4 -10z"/>
<path d="M5670 2086 c-11 -35 -8 -56 9 -56 5 0 12 16 15 35 9 47 9 49 -2 53
-6 2 -15 -13 -22 -32z"/>
<path d="M3812 2086 c7 -8 15 -12 17 -11 5 6 -10 25 -20 25 -5 0 -4 -6 3 -14z"/>
<path d="M3727 2071 c-3 -11 2 -26 10 -32 12 -11 13 -8 7 17 -9 37 -10 39 -17
15z"/>
<path d="M3780 2080 c0 -5 5 -10 11 -10 5 0 7 5 4 10 -3 6 -8 10 -11 10 -2 0
-4 -4 -4 -10z"/>
<path d="M4420 2081 c0 -6 4 -13 10 -16 6 -3 7 1 4 9 -7 18 -14 21 -14 7z"/>
<path d="M4750 2080 c0 -5 5 -10 11 -10 5 0 7 5 4 10 -3 6 -8 10 -11 10 -2 0
-4 -4 -4 -10z"/>
<path d="M4803 2075 c4 -9 7 -19 7 -21 0 -3 8 0 19 5 10 6 20 9 22 8 2 -1 4
-1 4 0 0 1 -4 2 -10 3 -5 1 -19 7 -29 12 -16 9 -18 7 -13 -7z"/>
<path d="M5508 2079 c-7 -20 19 -111 34 -120 7 -5 9 -9 4 -9 -5 0 -2 -8 7 -18
9 -9 20 -29 26 -42 7 -18 10 -20 10 -7 1 10 -10 39 -23 65 -13 26 -27 63 -31
82 -10 48 -21 68 -27 49z"/>
<path d="M4545 2070 c3 -5 8 -10 11 -10 2 0 4 5 4 10 0 6 -5 10 -11 10 -5 0
-7 -4 -4 -10z"/>
<path d="M4726 2067 c3 -10 9 -15 12 -12 3 3 0 11 -7 18 -10 9 -11 8 -5 -6z"/>
<path d="M4950 2070 c0 -5 5 -10 10 -10 6 0 10 5 10 10 0 6 -4 10 -10 10 -5 0
-10 -4 -10 -10z"/>
<path d="M5570 2056 c0 -17 40 -89 46 -83 3 2 -2 17 -11 33 -8 16 -15 34 -15
41 0 6 -4 15 -10 18 -5 3 -10 -1 -10 -9z"/>
<path d="M4786 2047 c3 -10 9 -15 12 -12 3 3 0 11 -7 18 -10 9 -11 8 -5 -6z"/>
<path d="M5782 2029 c2 -19 8 -33 13 -31 15 3 12 55 -3 60 -10 3 -13 -5 -10
-29z"/>
<path d="M5847 1991 c-9 -16 -17 -40 -16 -53 0 -14 3 -17 6 -8 3 8 14 32 24
53 22 44 11 50 -14 8z"/>
<path d="M4695 2000 c-3 -6 1 -7 9 -4 18 7 21 14 7 14 -6 0 -13 -4 -16 -10z"/>
<path d="M4060 1988 c0 -7 5 -20 11 -28 9 -12 10 -12 5 4 -4 11 -1 23 6 28 10
6 8 8 -4 8 -10 0 -18 -6 -18 -12z"/>
<path d="M4160 1990 c0 -5 5 -10 10 -10 6 0 10 5 10 10 0 6 -4 10 -10 10 -5 0
-10 -4 -10 -10z"/>
<path d="M4307 1987 c-11 -29 -9 -53 4 -40 6 6 9 21 7 34 -3 21 -4 22 -11 6z"/>
<path d="M4775 1990 c-3 -6 1 -7 9 -4 18 7 21 14 7 14 -6 0 -13 -4 -16 -10z"/>
<path d="M4940 1985 c-19 -22 -8 -25 13 -3 9 10 13 18 8 18 -5 0 -14 -7 -21
-15z"/>
<path d="M5650 1987 c0 -7 11 -28 25 -47 l25 -34 0 31 c0 30 -21 63 -41 63 -5
0 -9 -6 -9 -13z"/>
<path d="M5020 1980 c-8 -5 -12 -12 -9 -15 4 -3 12 1 19 10 14 17 11 19 -10 5z"/>
<path d="M5763 1962 c0 -15 -3 -47 -6 -72 l-7 -45 15 39 c8 22 13 41 10 44 -3
3 -1 10 4 16 6 7 4 18 -3 28 -12 16 -13 15 -13 -10z"/>
<path d="M4250 1940 c0 -5 5 -10 10 -10 6 0 10 5 10 10 0 6 -4 10 -10 10 -5 0
-10 -4 -10 -10z"/>
<path d="M4430 1941 c0 -6 4 -13 10 -16 6 -3 7 1 4 9 -7 18 -14 21 -14 7z"/>
<path d="M4800 1940 c0 -5 5 -10 10 -10 6 0 10 5 10 10 0 6 -4 10 -10 10 -5 0
-10 -4 -10 -10z"/>
<path d="M4933 1925 c2 -5 12 -12 22 -13 10 -2 15 0 11 6 -3 6 0 12 6 15 7 2
1 4 -14 3 -16 0 -26 -5 -25 -11z"/>
<path d="M5120 1929 c0 -5 5 -7 10 -4 6 3 10 8 10 11 0 2 -4 4 -10 4 -5 0 -10
-5 -10 -11z"/>
<path d="M4310 1919 c0 -5 5 -7 10 -4 6 3 10 8 10 11 0 2 -4 4 -10 4 -5 0 -10
-5 -10 -11z"/>
<path d="M4695 1920 c-3 -6 1 -7 9 -4 18 7 21 14 7 14 -6 0 -13 -4 -16 -10z"/>
<path d="M4825 1920 c-3 -5 -1 -10 4 -10 6 0 11 5 11 10 0 6 -2 10 -4 10 -3 0
-8 -4 -11 -10z"/>
<path d="M4990 1914 c0 -8 5 -12 10 -9 6 4 8 11 5 16 -9 14 -15 11 -15 -7z"/>
<path d="M5036 1913 c-6 -14 -5 -15 5 -6 7 7 10 15 7 18 -3 3 -9 -2 -12 -12z"/>
<path d="M5527 1893 c-3 -21 -11 -51 -18 -68 -7 -16 -11 -34 -10 -39 1 -4 -4
-14 -10 -22 -6 -8 -7 -14 -2 -14 12 0 73 117 73 140 0 10 -6 23 -14 29 -11 9
-14 4 -19 -26z"/>
<path d="M4640 1905 c-7 -9 -11 -18 -8 -20 3 -3 11 1 18 10 7 9 11 18 8 20 -3
3 -11 -1 -18 -10z"/>
<path d="M5922 1890 c0 -14 2 -19 5 -12 2 6 2 18 0 25 -3 6 -5 1 -5 -13z"/>
<path d="M5808 1894 c-4 -6 -12 -24 -18 -40 l-11 -29 21 21 c12 12 20 30 18
40 -2 12 -6 15 -10 8z"/>
<path d="M4825 1880 c-3 -5 -1 -10 4 -10 6 0 11 5 11 10 0 6 -2 10 -4 10 -3 0
-8 -4 -11 -10z"/>
<path d="M4983 1843 c1 -14 8 -28 16 -31 8 -3 11 0 7 6 -3 6 1 15 10 20 20 11
10 32 -16 32 -14 0 -18 -7 -17 -27z"/>
<path d="M3807 1833 c-4 -3 -7 -11 -7 -17 0 -6 5 -5 12 2 6 6 9 14 7 17 -3 3
-9 2 -12 -2z"/>
<path d="M4485 1830 c3 -5 8 -10 11 -10 2 0 4 5 4 10 0 6 -5 10 -11 10 -5 0
-7 -4 -4 -10z"/>
<path d="M4316 1817 c3 -10 9 -15 12 -12 3 3 0 11 -7 18 -10 9 -11 8 -5 -6z"/>
<path d="M4350 1816 c12 -16 40 -11 40 6 0 6 -6 5 -15 -2 -10 -9 -15 -9 -15
-1 0 6 -5 11 -11 11 -8 0 -8 -4 1 -14z"/>
<path d="M5032 1810 c0 -14 2 -19 5 -12 2 6 2 18 0 25 -3 6 -5 1 -5 -13z"/>
<path d="M5690 1815 c-11 -13 -10 -14 4 -9 9 3 16 10 16 15 0 13 -6 11 -20 -6z"/>
<path d="M5531 1783 c0 -25 1 -26 9 -8 12 27 12 35 0 35 -5 0 -10 -12 -9 -27z"/>
<path d="M4960 1790 c-13 -8 -13 -11 2 -26 15 -15 16 -14 15 10 -1 14 -2 26
-2 26 0 0 -7 -5 -15 -10z"/>
<path d="M5645 1789 c-4 -6 -5 -12 -2 -15 2 -3 7 2 10 11 7 17 1 20 -8 4z"/>
<path d="M3406 1773 c-6 -14 -5 -15 5 -6 7 7 10 15 7 18 -3 3 -9 -2 -12 -12z"/>
<path d="M5787 1783 c-4 -3 -7 -11 -7 -17 0 -6 5 -5 12 2 6 6 9 14 7 17 -3 3
-9 2 -12 -2z"/>
<path d="M3540 1768 c0 -9 5 -20 10 -23 13 -8 13 5 0 25 -8 13 -10 13 -10 -2z"/>
<path d="M4299 1756 c14 -15 26 -26 28 -26 9 0 -24 40 -37 45 -8 4 -4 -5 9
-19z"/>
<path d="M4352 1765 c-17 -19 -1 -19 24 0 14 11 15 14 4 14 -8 0 -21 -6 -28
-14z"/>
<path d="M3361 1742 c-26 -9 4 -22 49 -22 54 0 65 -9 62 -55 -2 -29 -1 -29 13
-10 9 11 13 25 11 31 -3 8 8 12 30 12 39 0 53 8 38 21 -10 10 -185 29 -203 23z"/>
<path d="M4956 1726 c3 -9 11 -16 16 -16 13 0 5 23 -10 28 -7 2 -10 -2 -6 -12z"/>
<path d="M3310 1720 c0 -5 7 -10 15 -10 8 0 15 5 15 10 0 6 -7 10 -15 10 -8 0
-15 -4 -15 -10z"/>
<path d="M3365 1673 c3 -21 7 -52 9 -69 1 -17 12 -46 23 -65 22 -34 58 -121
73 -171 7 -21 5 -28 -6 -28 -8 0 -14 4 -14 10 0 5 -8 17 -19 27 -10 10 -21 31
-25 46 -4 15 -13 30 -22 34 -18 7 -33 -5 -17 -15 15 -10 31 -168 22 -217 -13
-63 -10 -134 5 -163 7 -15 23 -59 35 -97 17 -57 27 -74 52 -89 24 -14 29 -23
24 -40 -13 -43 -15 -79 -4 -92 6 -7 8 -17 5 -22 -3 -5 1 -9 9 -9 8 0 15 10 16
21 3 75 -4 293 -12 351 -15 109 -22 343 -10 324 6 -9 13 -67 17 -130 6 -110
16 -141 39 -118 7 7 4 15 -8 24 -16 11 -16 14 -3 17 14 3 14 6 2 31 -8 15 -11
27 -5 27 5 0 9 -4 9 -10 0 -5 7 -10 15 -10 8 0 15 7 15 16 0 8 -4 13 -9 10
-25 -16 -38 6 -37 64 1 33 -1 60 -4 60 -4 0 -7 39 -8 87 -1 48 -7 92 -13 98
-7 7 -10 5 -9 -5 5 -35 -2 -43 -13 -14 -11 30 -117 154 -131 154 -3 0 -4 -17
-1 -37z m150 -184 c-6 -45 -15 -49 -15 -6 0 21 4 37 10 37 5 0 7 -14 5 -31z"/>
<path d="M5875 1701 c-3 -6 -12 -8 -19 -5 -7 3 -16 -2 -20 -11 -8 -23 3 -39
18 -26 10 8 13 4 13 -19 0 -35 -23 -47 -48 -24 -10 9 -25 14 -33 11 -9 -4 -17
1 -21 13 -11 35 -30 42 -77 29 -48 -15 -55 -16 -80 -18 -15 -1 -17 -10 -12
-73 3 -40 10 -89 15 -108 32 -134 44 -170 53 -166 6 2 10 9 8 16 -2 7 -5 30
-7 50 -2 21 -9 47 -16 58 -7 12 -11 24 -7 27 11 11 91 10 95 -2 2 -6 13 -21
24 -34 l19 -23 12 32 c7 18 15 32 19 32 3 0 11 -37 17 -82 15 -101 50 -229 69
-244 7 -6 13 -19 13 -28 0 -9 4 -16 10 -16 5 0 7 -6 4 -14 -6 -15 22 -30 30
-17 3 5 2 49 -3 99 -6 64 -14 100 -30 126 -29 46 -43 254 -18 274 16 14 47 6
47 -12 0 -6 9 -13 20 -14 11 -1 28 -2 38 -3 9 -1 23 -6 30 -12 7 -5 15 -7 18
-4 3 3 17 2 30 -3 13 -5 26 -5 28 -1 5 8 -30 23 -186 80 -35 13 -44 21 -36 29
17 17 19 63 3 78 -8 9 -16 10 -20 5z"/>
<path d="M3240 1623 c0 -54 -1 -56 -19 -39 -18 16 -19 15 -31 -35 -9 -35 -10
-88 -6 -166 8 -138 -2 -295 -18 -286 -6 4 -5 -1 2 -10 8 -9 11 -25 7 -38 -10
-31 -12 -90 -3 -95 5 -3 8 -29 8 -58 0 -60 25 -153 48 -178 10 -12 11 -18 3
-18 -8 0 -10 -7 -6 -20 4 -12 2 -20 -6 -20 -9 0 -9 -3 1 -15 6 -8 12 -35 13
-60 1 -26 7 -45 13 -45 15 0 28 315 20 466 -17 313 -18 374 -7 374 6 0 11 -3
11 -7 8 -275 15 -372 25 -361 2 2 8 23 13 46 8 34 7 46 -5 58 -14 13 -14 17
-1 32 30 34 29 126 -1 108 -6 -4 -11 -2 -11 4 0 7 9 14 20 17 11 3 17 10 14
15 -3 5 -12 7 -20 4 -17 -6 -18 6 -3 21 7 7 7 13 0 17 -5 4 -7 14 -4 23 4 11
3 14 -5 9 -9 -5 -9 0 -2 19 6 15 8 31 4 36 -3 5 -1 9 5 9 6 0 8 7 5 15 -4 8
-1 15 5 15 6 0 11 4 11 10 0 5 -8 6 -17 3 -12 -5 -15 -2 -11 9 4 9 1 21 -5 28
-10 10 -7 12 10 7 21 -5 22 -2 18 62 -2 36 -6 65 -9 64 -4 -2 -10 -3 -14 -3
-10 0 -8 -47 3 -74 6 -14 5 -17 -3 -12 -8 5 -12 -1 -13 -16 -1 -13 -2 -27 -4
-33 -1 -5 -3 -17 -5 -25 -2 -8 -6 26 -9 75 -3 50 -2 93 3 96 10 8 -1 29 -15
29 -5 0 -9 -25 -9 -57z m27 -225 c-3 -8 -6 -5 -6 6 -1 11 2 17 5 13 3 -3 4
-12 1 -19z m30 -190 c-3 -8 -6 -5 -6 6 -1 11 2 17 5 13 3 -3 4 -12 1 -19z m0
-40 c-3 -8 -6 -5 -6 6 -1 11 2 17 5 13 3 -3 4 -12 1 -19z"/>
<path d="M3510 1651 c0 -16 4 -32 9 -36 5 -3 9 8 9 25 -1 40 -18 50 -18 11z"/>
<path d="M4315 1642 c-6 -4 -11 -14 -13 -22 -3 -12 0 -12 14 2 18 18 17 33 -1
20z"/>
<path d="M4365 1629 c-4 -6 -5 -12 -2 -15 2 -3 7 2 10 11 7 17 1 20 -8 4z"/>
<path d="M3751 1617 c-14 -6 -26 -18 -29 -24 -6 -21 13 -15 38 12 26 28 25 30
-9 12z"/>
<path d="M4497 1603 c-4 -3 -7 -11 -7 -17 0 -6 5 -5 12 2 6 6 9 14 7 17 -3 3
-9 2 -12 -2z"/>
<path d="M3055 1590 c-4 -6 -3 -16 3 -22 13 -13 23 4 13 21 -7 10 -10 10 -16
1z"/>
<path d="M3950 1591 c0 -5 5 -13 10 -16 6 -3 10 -2 10 4 0 5 -4 13 -10 16 -5
3 -10 2 -10 -4z"/>
<path d="M6117 1587 c-3 -7 -2 -19 3 -26 5 -10 8 -9 13 2 3 7 2 19 -3 26 -5
10 -8 9 -13 -2z"/>
<path d="M4973 1583 c4 -6 1 -13 -5 -16 -7 -2 -10 -8 -6 -12 3 -4 14 -3 23 2
15 9 15 11 -1 24 -10 8 -15 9 -11 2z"/>
<path d="M3167 1573 c-4 -3 -7 -11 -7 -17 0 -6 5 -5 12 2 6 6 9 14 7 17 -3 3
-9 2 -12 -2z"/>
<path d="M4236 1567 c3 -10 9 -15 12 -12 3 3 0 11 -7 18 -10 9 -11 8 -5 -6z"/>
<path d="M4378 1573 c-21 -5 -22 -12 -4 -36 8 -10 20 -15 30 -11 9 3 16 1 16
-5 0 -6 -5 -11 -12 -11 -6 0 -8 -3 -5 -6 4 -4 13 -2 21 5 11 9 15 9 18 0 3 -8
9 -9 18 -4 11 7 10 10 -5 15 -11 4 -22 18 -25 31 -6 24 -21 31 -52 22z m27
-13 c3 -5 1 -10 -4 -10 -6 0 -11 5 -11 10 0 6 2 10 4 10 3 0 8 -4 11 -10z"/>
<path d="M3930 1555 c-10 -12 -9 -20 6 -42 11 -16 22 -35 26 -43 4 -9 7 -2 7
18 1 22 -4 32 -14 32 -8 0 -15 5 -15 11 0 6 7 9 15 5 19 -7 20 8 1 23 -10 9
-16 8 -26 -4z"/>
<path d="M6246 1562 c-2 -4 4 -9 15 -9 11 -1 17 2 14 8 -7 11 -22 12 -29 1z"/>
<path d="M3050 1535 c0 -8 8 -23 19 -34 10 -10 21 -25 24 -32 4 -10 6 -9 6 3
1 9 -7 22 -16 28 -13 8 -14 13 -5 16 20 9 14 34 -8 34 -11 0 -20 -7 -20 -15z"/>
<path d="M5490 1536 c0 -2 7 -7 16 -10 8 -3 12 -2 9 4 -6 10 -25 14 -25 6z"/>
<path d="M6130 1507 c0 -9 9 -19 20 -22 11 -3 20 -11 20 -17 0 -6 9 -3 19 6
11 10 22 13 25 8 3 -6 14 -8 24 -6 25 6 42 -9 47 -42 10 -63 21 -98 33 -102
14 -4 10 144 -4 158 -5 4 -40 10 -79 12 -38 3 -78 8 -87 13 -13 5 -18 3 -18
-8z"/>
<path d="M3050 1472 c0 -5 7 -15 15 -22 8 -7 15 -9 15 -6 0 4 -7 14 -15 22 -8
9 -15 11 -15 6z"/>
<path d="M3984 1461 c4 -5 0 -11 -6 -14 -9 -3 -4 -14 15 -33 26 -28 27 -28 27
-6 0 12 -5 22 -11 22 -6 0 -8 9 -4 20 5 14 2 20 -10 20 -9 0 -14 -4 -11 -9z"/>
<path d="M4533 1421 c10 -38 13 -40 56 -45 92 -11 134 -11 139 2 3 10 -3 13
-33 12 -3 0 -22 7 -42 15 -25 11 -40 12 -47 5 -7 -7 -5 -10 7 -10 9 0 17 -5
17 -11 0 -5 -3 -8 -7 -6 -16 8 -48 20 -58 21 -5 1 -10 10 -10 21 0 19 -12 34
-26 35 -3 0 -1 -18 4 -39z"/>
<path d="M5957 1453 c-4 -3 0 -14 8 -23 9 -10 15 -21 14 -26 -4 -21 2 -44 10
-44 17 0 21 33 6 50 -8 9 -15 24 -15 33 0 17 -11 22 -23 10z"/>
<path d="M6340 1441 c0 -9 57 -71 66 -71 8 0 -30 49 -38 50 -5 0 -8 7 -8 15 0
8 -4 15 -10 15 -5 0 -10 -4 -10 -9z"/>
<path d="M3049 1420 c-2 -14 2 -36 11 -50 8 -13 10 -21 3 -17 -6 4 -14 3 -17
-2 -4 -5 -2 -12 3 -15 5 -3 7 -16 4 -29 -3 -12 -3 -19 0 -16 4 3 8 14 10 25 2
10 8 27 12 38 5 10 4 21 -3 25 -5 3 -12 20 -14 36 -4 29 -4 29 -9 5z"/>
<path d="M4186 1432 c-9 -14 5 -50 21 -57 13 -4 14 -3 3 10 -7 8 -10 24 -7 35
5 20 -7 28 -17 12z"/>
<path d="M5370 1430 c0 -5 -7 -10 -15 -10 -8 0 -17 -11 -21 -25 -3 -14 -10
-23 -14 -20 -5 3 -11 1 -15 -5 -15 -25 20 -7 51 26 37 40 39 44 24 44 -5 0
-10 -4 -10 -10z"/>
<path d="M6077 1433 c-12 -12 -7 -22 8 -17 8 4 15 10 15 15 0 11 -14 12 -23 2z"/>
<path d="M6111 1383 c-7 -8 -11 -16 -8 -19 2 -2 10 2 17 11 17 20 9 27 -9 8z"/>
<path d="M6002 1360 l-23 -19 23 -31 c12 -17 24 -26 27 -19 2 6 -2 15 -9 19
-9 6 -7 11 9 19 11 7 21 16 21 22 0 5 -10 1 -22 -11 -27 -25 -38 -17 -13 10
24 27 16 33 -13 10z"/>
<path d="M5186 1338 c-9 -12 -16 -28 -16 -34 0 -7 -6 -25 -14 -41 -8 -15 -22
-48 -31 -73 -10 -25 -24 -58 -32 -73 -8 -16 -12 -31 -9 -34 3 -4 1 -12 -6 -20
-6 -7 -8 -16 -5 -20 4 -3 2 -11 -3 -18 -13 -16 -50 -133 -50 -159 0 -12 -4
-26 -9 -32 -5 -5 -12 -27 -16 -49 -4 -22 -8 -47 -10 -55 -2 -8 -4 -23 -4 -33
-1 -10 -5 -16 -10 -13 -5 3 -12 -10 -15 -29 -4 -19 -10 -35 -15 -35 -4 0 -8
-8 -8 -17 1 -59 -3 -78 -14 -63 -8 12 -9 10 -4 -8 4 -13 -1 -41 -11 -66 l-18
-43 -60 -2 c-33 -1 -62 -4 -65 -6 -4 -5 86 -7 92 -2 2 1 12 -4 21 -12 14 -12
18 -12 30 5 8 10 12 22 9 27 -2 4 0 14 7 22 6 7 13 29 16 48 2 19 10 47 18 63
8 15 13 31 10 36 -3 4 -1 8 4 8 5 0 12 12 15 28 2 15 13 55 25 90 11 34 17 62
12 62 -4 0 4 22 16 49 13 27 26 64 27 81 2 17 11 40 20 50 9 10 11 20 6 22 -5
2 -1 14 8 28 10 14 18 38 19 54 1 16 6 31 10 35 5 3 9 11 9 16 1 27 18 75 26
75 6 0 8 4 4 9 -3 5 -1 12 5 16 6 4 8 10 5 14 -2 5 1 21 9 37 15 33 29 84 22
84 -3 0 -12 -10 -20 -22z"/>
<path d="M5762 1347 c-7 -8 -7 -18 -2 -27 6 -8 10 -13 11 -10 0 3 2 15 5 28 4
25 1 28 -14 9z"/>
<path d="M5800 1300 c0 -5 5 -10 10 -10 6 0 10 5 10 10 0 6 -4 10 -10 10 -5 0
-10 -4 -10 -10z"/>
<path d="M6121 1302 c-1 -7 -5 -10 -11 -7 -15 10 -12 -5 6 -22 9 -10 13 -25
10 -39 -3 -12 -2 -25 2 -28 12 -7 14 57 3 85 -5 13 -10 18 -10 11z"/>
<path d="M5688 1277 c-4 -18 -1 -24 9 -20 15 6 16 13 4 31 -6 10 -10 7 -13
-11z"/>
<path d="M5665 1280 c-3 -5 -1 -10 4 -10 6 0 11 5 11 10 0 6 -2 10 -4 10 -3 0
-8 -4 -11 -10z"/>
<path d="M6380 1270 c0 -5 5 -10 10 -10 6 0 10 5 10 10 0 6 -4 10 -10 10 -5 0
-10 -4 -10 -10z"/>
<path d="M5765 1259 c-11 -16 -1 -19 13 -3 7 8 8 14 3 14 -5 0 -13 -5 -16 -11z"/>
<path d="M6012 1252 c6 -7 14 -9 17 -5 4 4 10 11 14 14 5 4 -3 6 -16 5 -20 -1
-23 -4 -15 -14z"/>
<path d="M6061 1244 c0 -11 3 -14 6 -6 3 7 2 16 -1 19 -3 4 -6 -2 -5 -13z"/>
<path d="M6220 1231 c0 -13 3 -21 7 -18 3 4 12 -1 20 -11 13 -16 13 -15 4 3
-23 45 -31 51 -31 26z"/>
<path d="M4250 1231 c0 -5 5 -13 10 -16 6 -3 10 -2 10 4 0 5 -4 13 -10 16 -5
3 -10 2 -10 -4z"/>
<path d="M5985 1195 c3 -27 9 -139 14 -248 5 -109 11 -201 15 -204 3 -4 6 9 6
28 1 19 3 60 6 92 4 41 3 57 -6 57 -9 0 -9 4 1 16 10 13 10 17 0 23 -10 6 -10
13 -2 29 10 19 9 65 -5 160 -4 29 -2 48 7 60 13 15 12 16 -3 3 -16 -12 -19
-10 -28 10 -8 19 -9 14 -5 -26z"/>
<path d="M3036 1203 c-4 -9 -1 -21 5 -27 9 -8 10 -7 6 7 -4 9 -2 17 3 17 6 0
10 5 10 10 0 16 -17 11 -24 -7z"/>
<path d="M5805 1199 c6 -18 4 -20 -16 -14 -21 7 -22 6 -10 -8 18 -23 60 -19
53 5 -2 10 -9 18 -14 18 -5 0 -6 5 -3 10 3 6 1 10 -5 10 -7 0 -9 -8 -5 -21z"/>
<path d="M6430 1211 c0 -6 4 -13 10 -16 6 -3 7 1 4 9 -7 18 -14 21 -14 7z"/>
<path d="M5450 1175 c13 -14 27 -25 31 -25 5 0 -3 11 -17 25 -14 14 -28 25
-31 25 -4 0 4 -11 17 -25z"/>
<path d="M6396 1191 c-8 -13 -2 -54 28 -168 14 -56 26 -118 26 -138 0 -20 4
-34 9 -31 5 3 12 58 16 122 6 97 5 118 -8 131 -10 10 -17 11 -21 4 -4 -6 -2
-11 3 -11 6 0 11 -7 11 -15 0 -8 -7 -15 -15 -15 -10 0 -13 10 -11 34 1 19 -1
33 -6 30 -7 -5 -12 25 -9 54 2 14 -15 16 -23 3z m64 -141 c0 -5 -4 -10 -10
-10 -5 0 -10 5 -10 10 0 6 5 10 10 10 6 0 10 -4 10 -10z"/>
<path d="M6076 1182 c-3 -6 -1 -14 5 -17 15 -10 25 3 12 16 -7 7 -13 7 -17 1z"/>
<path d="M4271 1173 c0 -4 4 -17 9 -28 8 -19 9 -19 9 2 1 12 -3 25 -9 28 -5 3
-10 3 -9 -2z"/>
<path d="M6263 1164 c-8 -21 1 -26 22 -11 16 13 16 14 1 20 -10 4 -19 1 -23
-9z"/>
<path d="M3570 1133 c-8 -16 -16 -32 -19 -37 -2 -5 4 -6 14 -2 15 5 16 4 6 -8
-8 -10 -9 -16 -1 -21 5 -3 10 -1 10 5 0 6 5 8 11 5 6 -4 8 -13 5 -21 -3 -8 0
-11 10 -7 18 7 18 8 -2 38 -9 13 -13 29 -9 35 3 5 2 10 -4 10 -6 0 -8 7 -5 15
10 26 -2 17 -16 -12z"/>
<path d="M6306 1133 l-17 -28 19 22 c11 12 23 19 27 15 5 -4 5 -1 1 6 -10 17
-11 16 -30 -15z"/>
<path d="M3970 1140 c0 -5 5 -10 10 -10 6 0 10 5 10 10 0 6 -4 10 -10 10 -5 0
-10 -4 -10 -10z"/>
<path d="M5597 1143 c-2 -5 -3 -21 -2 -38 1 -16 3 -72 4 -122 1 -75 4 -93 16
-93 10 0 15 11 15 35 0 21 5 35 13 35 9 0 9 2 0 8 -6 4 -13 34 -15 66 -2 32
-6 60 -10 63 -13 7 -9 41 5 46 7 3 6 6 -5 6 -9 1 -19 -2 -21 -6z"/>
<path d="M5809 1137 c-15 -11 -23 -47 -10 -45 15 3 41 -16 41 -29 0 -8 5 -11
11 -8 6 4 1 19 -15 39 -19 25 -22 36 -13 45 15 15 6 14 -14 -2z"/>
<path d="M5440 1119 c-11 -8 -12 -12 -2 -16 21 -8 13 -25 -9 -18 -19 6 -20 5
-8 -8 9 -9 18 -12 25 -6 6 5 16 4 23 -4 11 -9 11 -7 0 13 -7 14 -12 31 -11 38
3 15 1 15 -18 1z"/>
<path d="M6058 1108 c-7 -18 1 -38 15 -38 8 0 8 3 0 11 -6 6 -9 18 -6 25 3 8
3 14 0 14 -3 0 -7 -6 -9 -12z"/>
<path d="M6113 1085 c0 -8 3 -13 5 -10 3 3 12 -1 20 -8 13 -10 15 -9 9 6 -4
10 -7 21 -7 23 0 2 -6 4 -13 4 -8 0 -14 -7 -14 -15z"/>
<path d="M4307 1062 c3 -12 9 -25 14 -28 14 -8 11 10 -6 32 -13 18 -14 18 -8
-4z"/>
<path d="M5800 1070 c0 -5 5 -10 10 -10 6 0 10 5 10 10 0 6 -4 10 -10 10 -5 0
-10 -4 -10 -10z"/>
<path d="M5145 1043 c-11 -27 -15 -67 -6 -57 10 10 25 74 18 74 -3 0 -8 -8
-12 -17z"/>
<path d="M5410 1052 c0 -5 7 -15 15 -22 8 -7 15 -9 15 -6 0 4 -7 14 -15 22 -8
9 -15 11 -15 6z"/>
<path d="M5453 1050 c2 -8 12 -16 23 -17 13 -2 15 -1 4 4 -8 3 -19 11 -23 17
-6 7 -7 6 -4 -4z"/>
<path d="M5775 1050 c3 -5 11 -10 16 -10 6 0 7 5 4 10 -3 6 -11 10 -16 10 -6
0 -7 -4 -4 -10z"/>
<path d="M6290 1049 c0 -5 5 -7 10 -4 6 3 10 8 10 11 0 2 -4 4 -10 4 -5 0 -10
-5 -10 -11z"/>
<path d="M6368 1039 c-14 -15 -15 -19 -4 -19 8 0 16 -6 19 -12 2 -7 4 2 4 20
0 17 -1 32 -1 31 -1 0 -9 -9 -18 -20z"/>
<path d="M6060 1035 c0 -8 4 -15 10 -15 5 0 7 7 4 15 -4 8 -8 15 -10 15 -2 0
-4 -7 -4 -15z"/>
<path d="M5840 1029 c0 -5 5 -7 10 -4 6 3 10 8 10 11 0 2 -4 4 -10 4 -5 0 -10
-5 -10 -11z"/>
<path d="M3623 1011 c-13 -21 -12 -34 7 -73 11 -23 11 -30 -1 -45 -12 -16 -12
-17 2 -6 9 7 18 10 21 8 8 -8 1 75 -9 108 -8 25 -9 26 -20 8z"/>
<path d="M5519 1012 c12 -22 31 -22 31 0 0 6 -3 8 -7 5 -3 -4 -13 -1 -21 6
-13 10 -14 9 -3 -11z"/>
<path d="M5776 1017 c3 -10 9 -15 12 -12 3 3 0 11 -7 18 -10 9 -11 8 -5 -6z"/>
<path d="M3330 995 c-1 -5 -2 -13 -1 -17 0 -4 -8 -12 -19 -18 -11 -6 -18 -16
-14 -22 4 -7 9 -6 15 3 6 10 9 8 9 -9 0 -13 -4 -21 -9 -17 -5 3 -12 1 -16 -5
-3 -5 1 -10 9 -10 9 0 16 -6 17 -12 6 -73 9 -104 18 -173 5 -44 12 -102 14
-130 9 -90 41 -332 58 -430 16 -100 26 -146 32 -152 3 -3 18 -2 33 1 24 6 25
9 12 24 -13 15 -26 65 -42 168 -3 17 0 37 7 44 9 10 9 11 0 6 -9 -5 -13 1 -14
21 0 15 -2 37 -4 48 -2 11 -6 36 -8 55 -2 20 -6 40 -8 45 -3 6 -7 46 -8 90
l-2 80 27 -25 c15 -14 39 -37 54 -52 15 -15 30 -25 33 -21 4 3 7 2 7 -4 0 -5
11 -15 25 -21 28 -13 33 -32 9 -32 -14 0 -14 -3 -4 -15 8 -9 21 -13 34 -10 16
5 18 4 6 -4 -11 -7 -12 -13 -4 -21 17 -17 38 14 25 38 -6 11 -7 22 -3 26 3 4
-1 4 -10 1 -11 -4 -20 1 -27 14 -14 25 -14 34 0 25 15 -9 -16 48 -45 83 -14
17 -23 33 -19 37 3 3 0 6 -9 6 -16 0 -52 36 -61 63 -4 9 -11 17 -17 17 -5 0
-10 7 -10 15 0 8 -4 15 -10 15 -5 0 -10 8 -10 18 0 9 -9 40 -20 69 -10 28 -21
74 -22 101 -2 28 -6 48 -10 46 -4 -2 -9 8 -11 23 -2 16 -5 24 -7 18z"/>
<path d="M5435 980 c3 -5 8 -10 11 -10 2 0 4 5 4 10 0 6 -5 10 -11 10 -5 0 -7
-4 -4 -10z"/>
<path d="M5760 986 c0 -2 7 -9 15 -16 9 -7 15 -8 15 -2 0 5 -7 12 -15 16 -8 3
-15 4 -15 2z"/>
<path d="M6313 976 c0 -8 6 -12 14 -9 7 3 13 9 13 14 0 5 -6 9 -13 9 -8 0 -14
-6 -14 -14z"/>
<path d="M6379 970 c19 -17 21 -23 11 -35 -7 -9 -10 -19 -6 -22 9 -9 26 16 26
37 0 8 -12 21 -28 27 l-27 13 24 -20z"/>
<path d="M3115 970 c3 -5 11 -10 16 -10 6 0 7 5 4 10 -3 6 -11 10 -16 10 -6 0
-7 -4 -4 -10z"/>
<path d="M5815 970 c-3 -5 -1 -10 4 -10 6 0 11 5 11 10 0 6 -2 10 -4 10 -3 0
-8 -4 -11 -10z"/>
<path d="M5120 955 c0 -8 5 -15 10 -15 6 0 10 7 10 15 0 8 -4 15 -10 15 -5 0
-10 -7 -10 -15z"/>
<path d="M5755 950 c3 -5 8 -10 11 -10 2 0 4 5 4 10 0 6 -5 10 -11 10 -5 0 -7
-4 -4 -10z"/>
<path d="M3577 933 c-4 -3 -7 -11 -7 -17 0 -6 5 -5 12 2 6 6 9 14 7 17 -3 3
-9 2 -12 -2z"/>
<path d="M3610 920 c0 -5 5 -10 10 -10 6 0 10 5 10 10 0 6 -4 10 -10 10 -5 0
-10 -4 -10 -10z"/>
<path d="M4096 915 c-3 -8 -1 -15 4 -15 6 0 10 7 10 15 0 8 -2 15 -4 15 -2 0
-6 -7 -10 -15z"/>
<path d="M5115 910 c10 -11 20 -20 22 -20 2 0 -2 9 -9 20 -7 11 -17 20 -22 20
-5 0 -1 -9 9 -20z"/>
<path d="M3082 904 c-7 -8 -8 -14 -3 -14 10 0 25 19 20 25 -2 1 -10 -3 -17
-11z"/>
<path d="M3390 911 c0 -5 7 -12 16 -15 14 -5 15 -4 4 9 -14 17 -20 19 -20 6z"/>
<path d="M3881 901 c-8 -5 -9 -11 -3 -15 5 -3 12 1 16 9 6 17 6 18 -13 6z"/>
<path d="M5093 896 c4 -9 3 -24 -2 -34 -18 -36 -51 -127 -56 -157 -4 -28 -64
-186 -79 -210 -7 -11 -20 -45 -29 -75 -21 -65 -37 -95 -37 -67 0 32 -19 17
-26 -20 -9 -57 -19 -99 -48 -203 -32 -116 -33 -148 -2 -60 13 36 31 85 40 110
9 24 14 50 12 57 -3 7 -2 13 2 13 14 0 78 153 147 350 24 69 51 142 60 163 16
40 31 51 19 15 -6 -21 -6 -21 11 -5 17 17 17 19 -1 31 -13 10 -15 18 -8 27 15
21 17 66 3 75 -9 5 -10 2 -6 -10z"/>
<path d="M4297 893 c-3 -5 -1 -17 4 -28 7 -17 8 -17 8 8 1 27 -4 34 -12 20z"/>
<path d="M4325 890 c-3 -5 -1 -10 4 -10 6 0 11 5 11 10 0 6 -2 10 -4 10 -3 0
-8 -4 -11 -10z"/>
<path d="M6317 886 c-4 -10 -5 -21 -2 -24 9 -9 17 6 13 25 -3 17 -4 17 -11 -1z"/>
<path d="M4381 854 c0 -11 3 -14 6 -6 3 7 2 16 -1 19 -3 4 -6 -2 -5 -13z"/>
<path d="M5830 859 c0 -5 5 -7 10 -4 6 3 10 8 10 11 0 2 -4 4 -10 4 -5 0 -10
-5 -10 -11z"/>
<path d="M6247 818 c12 -78 10 -176 -6 -327 -11 -98 -12 -136 -3 -139 6 -2 8
-10 5 -19 -5 -11 -3 -14 6 -9 7 5 11 17 8 27 -3 11 -1 19 5 19 6 0 8 9 5 19
-3 13 0 18 8 15 6 -3 17 1 23 9 9 10 5 13 -18 11 -19 -1 -30 3 -30 11 0 20 30
27 30 7 1 -15 2 -15 15 1 18 25 8 49 -16 42 -25 -8 -25 11 0 24 21 12 34 48
20 57 -5 3 -14 14 -19 25 -9 16 -7 21 14 29 17 6 24 14 20 25 -4 10 0 15 11
15 15 0 15 1 0 16 -12 13 -19 14 -30 4 -13 -11 -15 -4 -16 46 -1 33 -2 64 -4
69 -1 6 -3 25 -3 43 -2 21 -7 32 -17 32 -13 0 -14 -9 -8 -52z m52 -170 c-9
-16 -14 -19 -17 -9 -2 7 2 17 9 22 20 13 21 11 8 -13z m-27 -120 c-7 -7 -12
-8 -12 -2 0 14 12 26 19 19 2 -3 -1 -11 -7 -17z"/>
<path d="M6370 856 c0 -8 4 -17 9 -20 5 -4 7 3 4 14 -6 23 -13 26 -13 6z"/>
<path d="M3097 846 c-4 -10 -1 -13 8 -9 8 3 12 9 9 14 -7 12 -11 11 -17 -5z"/>
<path d="M3595 850 c3 -5 8 -10 11 -10 2 0 4 5 4 10 0 6 -5 10 -11 10 -5 0 -7
-4 -4 -10z"/>
<path d="M4316 824 c-8 -32 0 -43 17 -24 9 10 9 11 0 6 -15 -8 -18 10 -3 19
12 8 13 25 1 25 -5 0 -12 -12 -15 -26z"/>
<path d="M5477 834 c3 -7 9 -14 14 -14 14 0 10 17 -5 23 -10 4 -13 1 -9 -9z"/>
<path d="M6420 829 c0 -5 5 -7 10 -4 6 3 10 8 10 11 0 2 -4 4 -10 4 -5 0 -10
-5 -10 -11z"/>
<path d="M3730 820 c0 -5 5 -10 10 -10 6 0 10 5 10 10 0 6 -4 10 -10 10 -5 0
-10 -4 -10 -10z"/>
<path d="M3640 815 c0 -18 19 -40 26 -32 4 4 0 15 -9 24 -9 10 -17 13 -17 8z"/>
<path d="M4285 790 c3 -5 8 -10 11 -10 2 0 4 5 4 10 0 6 -5 10 -11 10 -5 0 -7
-4 -4 -10z"/>
<path d="M4340 782 c-28 -19 -40 -32 -40 -47 0 -7 3 -6 8 0 4 6 22 23 40 38
37 30 32 36 -8 9z"/>
<path d="M5455 790 c-3 -5 -1 -10 4 -10 6 0 11 5 11 10 0 6 -2 10 -4 10 -3 0
-8 -4 -11 -10z"/>
<path d="M5810 796 c0 -2 7 -7 16 -10 8 -3 12 -2 9 4 -6 10 -25 14 -25 6z"/>
<path d="M3096 775 c4 -8 11 -15 16 -15 6 0 5 6 -2 15 -7 8 -14 15 -16 15 -2
0 -1 -7 2 -15z"/>
<path d="M3292 765 c0 -16 2 -22 5 -12 2 9 2 23 0 30 -3 6 -5 -1 -5 -18z"/>
<path d="M3580 786 c0 -2 7 -7 16 -10 8 -3 12 -2 9 4 -6 10 -25 14 -25 6z"/>
<path d="M3762 776 c7 -8 17 -12 22 -9 4 3 2 9 -5 14 -22 13 -31 11 -17 -5z"/>
<path d="M5238 753 c-40 -16 -50 -39 -20 -45 21 -5 92 33 92 50 0 16 -26 15
-72 -5z"/>
<path d="M3665 751 c-3 -5 -2 -12 3 -15 5 -3 9 1 9 9 0 17 -3 19 -12 6z"/>
<path d="M4264 715 c2 -19 8 -40 14 -48 6 -7 7 -18 3 -26 -9 -14 -7 -128 3
-138 8 -9 36 17 36 34 0 8 7 27 15 43 13 25 13 29 1 24 -8 -3 -16 -14 -19 -25
-3 -10 -10 -19 -15 -19 -7 0 -8 10 -3 28 4 15 6 33 3 41 -3 9 0 11 7 7 8 -6
10 0 6 21 -5 22 -4 25 5 13 8 -10 10 -11 8 -2 -2 8 -6 12 -9 10 -10 -5 -39 24
-33 33 3 5 -1 16 -10 24 -13 13 -14 11 -12 -20z"/>
<path d="M4400 747 c0 -2 6 -10 14 -16 11 -9 16 -9 22 1 4 7 4 10 -1 6 -4 -4
-14 -3 -22 3 -7 6 -13 9 -13 6z"/>
<path d="M5826 736 c5 -12 2 -15 -10 -10 -12 5 -15 2 -10 -10 8 -21 20 -20 46
4 12 11 17 20 11 20 -6 0 -19 3 -27 6 -12 5 -15 2 -10 -10z"/>
<path d="M3947 732 c-16 -7 -16 -8 2 -24 18 -15 19 -15 17 8 0 13 -1 24 -1 23
0 0 -8 -4 -18 -7z"/>
<path d="M4070 730 c-9 -6 -10 -10 -3 -10 6 0 15 5 18 10 8 12 4 12 -15 0z"/>
<path d="M6296 714 c-5 -14 -4 -15 9 -4 17 14 19 20 6 20 -5 0 -12 -7 -15 -16z"/>
<path d="M6380 713 c0 -7 5 -15 10 -18 7 -5 8 -11 1 -19 -7 -8 -5 -12 9 -12
11 0 20 9 23 24 3 16 0 22 -8 18 -7 -2 -18 1 -24 7 -8 8 -11 8 -11 0z"/>
<path d="M3306 693 c-6 -14 -5 -15 5 -6 7 7 10 15 7 18 -3 3 -9 -2 -12 -12z"/>
<path d="M3687 693 c-4 -3 -7 -11 -7 -17 0 -6 5 -5 12 2 6 6 9 14 7 17 -3 3
-9 2 -12 -2z"/>
<path d="M4450 682 c6 -13 14 -21 18 -18 3 4 -2 14 -12 24 -18 16 -18 16 -6
-6z"/>
<path d="M5793 683 c-7 -2 -13 -9 -13 -15 0 -7 4 -7 13 1 10 8 17 7 27 -2 12
-10 12 -9 1 6 -7 9 -14 17 -15 16 0 0 -7 -3 -13 -6z"/>
<path d="M3705 660 c-3 -5 -1 -10 4 -10 6 0 11 5 11 10 0 6 -2 10 -4 10 -3 0
-8 -4 -11 -10z"/>
<path d="M4232 658 c-18 -18 -14 -38 8 -38 22 0 27 15 9 26 -8 4 -7 9 2 15 8
5 9 9 4 9 -6 0 -16 -5 -23 -12z"/>
<path d="M4390 666 c0 -2 13 -6 29 -8 17 -2 28 -1 25 4 -5 8 -54 12 -54 4z"/>
<path d="M5795 650 c-3 -5 -1 -10 4 -10 6 0 11 5 11 10 0 6 -2 10 -4 10 -3 0
-8 -4 -11 -10z"/>
<path d="M3935 640 c3 -5 8 -10 11 -10 2 0 4 5 4 10 0 6 -5 10 -11 10 -5 0 -7
-4 -4 -10z"/>
<path d="M3526 601 c-4 -5 -2 -12 3 -15 5 -4 12 -2 15 3 4 5 2 12 -3 15 -5 4
-12 2 -15 -3z"/>
<path d="M4385 600 c-3 -5 -1 -10 4 -10 6 0 11 5 11 10 0 6 -2 10 -4 10 -3 0
-8 -4 -11 -10z"/>
<path d="M4474 597 c-14 -16 2 -32 33 -34 15 -1 20 3 16 13 -3 9 -13 12 -24 9
-14 -5 -17 -2 -13 9 7 19 3 20 -12 3z"/>
<path d="M6129 608 c-6 -12 -6 -89 0 -93 4 -2 7 18 7 45 -1 44 -3 56 -7 48z"/>
<path d="M3720 590 c20 -13 33 -13 25 0 -3 6 -14 10 -23 10 -15 0 -15 -2 -2
-10z"/>
<path d="M5250 586 c0 -8 5 -18 10 -21 6 -3 10 1 10 9 0 8 -4 18 -10 21 -5 3
-10 -1 -10 -9z"/>
<path d="M6305 580 c3 -5 8 -10 11 -10 2 0 4 5 4 10 0 6 -5 10 -11 10 -5 0 -7
-4 -4 -10z"/>
<path d="M6361 588 c-1 -4 4 -19 11 -33 11 -25 28 -34 28 -15 0 6 -4 10 -8 10
-5 0 -14 10 -20 23 -6 12 -11 19 -11 15z"/>
<path d="M3795 540 c-3 -5 -1 -10 4 -10 6 0 11 5 11 10 0 6 -2 10 -4 10 -3 0
-8 -4 -11 -10z"/>
<path d="M4393 534 c-3 -8 4 -25 16 -38 11 -12 21 -32 21 -45 0 -12 4 -19 10
-16 6 3 7 -1 4 -9 -8 -21 29 -22 46 -2 9 12 3 24 -34 62 -25 25 -43 50 -40 55
3 5 0 9 -6 9 -6 0 -13 -7 -17 -16z"/>
<path d="M5220 544 c0 -3 7 -12 15 -20 13 -13 15 -13 15 -1 0 8 -7 17 -15 21
-8 3 -15 3 -15 0z"/>
<path d="M6419 513 c-1 -16 -2 -54 -2 -85 0 -32 -4 -58 -10 -58 -5 0 -7 -10
-4 -22 3 -12 1 -31 -5 -42 -10 -19 -9 -19 5 -8 15 13 19 37 31 190 2 28 0 52
-5 52 -5 0 -10 -12 -10 -27z"/>
<path d="M4360 498 c-8 -13 -15 -34 -17 -48 -1 -20 2 -17 18 15 22 44 22 67
-1 33z"/>
<path d="M6374 496 c-8 -8 -8 -18 -2 -29 5 -10 6 -22 2 -29 -5 -7 -3 -8 5 -3
7 4 11 16 8 26 -3 10 -1 22 4 25 11 6 12 24 2 24 -5 -1 -13 -7 -19 -14z"/>
<path d="M3760 473 c0 -26 1 -26 16 -7 8 10 13 13 9 7 -3 -7 -1 -13 4 -13 14
0 14 13 -1 28 -19 19 -28 14 -28 -15z"/>
<path d="M3325 480 c3 -5 8 -10 11 -10 2 0 4 5 4 10 0 6 -5 10 -11 10 -5 0 -7
-4 -4 -10z"/>
<path d="M5741 481 c-8 -5 -9 -11 -3 -15 5 -3 12 1 16 9 6 17 6 18 -13 6z"/>
<path d="M3811 408 c0 -28 2 -30 9 -13 12 28 12 45 0 45 -5 0 -10 -15 -9 -32z"/>
<path d="M4539 440 c-5 -14 -4 -60 2 -60 12 0 17 24 8 45 -4 11 -8 18 -10 15z"/>
<path d="M4620 429 c0 -5 21 -9 47 -9 25 0 44 2 42 4 -10 8 -89 13 -89 5z"/>
<path d="M3036 415 c-6 -16 2 -45 13 -45 3 0 6 14 7 30 1 32 -10 40 -20 15z"/>
<path d="M3220 419 c0 -5 5 -7 10 -4 6 3 10 8 10 11 0 2 -4 4 -10 4 -5 0 -10
-5 -10 -11z"/>
<path d="M4360 421 c0 -5 5 -13 10 -16 6 -3 10 -2 10 4 0 5 -4 13 -10 16 -5 3
-10 2 -10 -4z"/>
<path d="M3280 411 c0 -6 4 -13 10 -16 6 -3 7 1 4 9 -7 18 -14 21 -14 7z"/>
<path d="M3504 412 c-8 -5 -5 -13 7 -26 19 -20 23 -14 11 16 -4 10 -12 14 -18
10z"/>
<path d="M3870 400 c0 -6 4 -9 9 -5 5 3 12 -2 14 -10 4 -12 5 -12 3 1 -1 19
-26 32 -26 14z"/>
<path d="M3910 404 c0 -3 6 -11 13 -17 61 -56 77 -61 28 -8 -28 30 -41 38 -41
25z"/>
<path d="M4587 381 c-4 -17 -3 -21 5 -13 5 5 8 16 6 23 -3 8 -7 3 -11 -10z"/>
<path d="M3090 379 c0 -5 5 -7 10 -4 6 3 10 8 10 11 0 2 -4 4 -10 4 -5 0 -10
-5 -10 -11z"/>
<path d="M3616 369 c-12 -11 -15 -19 -7 -19 13 0 41 24 41 34 0 11 -15 5 -34
-15z"/>
<path d="M4372 355 c6 -14 13 -23 16 -21 7 7 -9 46 -18 46 -5 0 -4 -11 2 -25z"/>
<path d="M5150 370 c0 -5 5 -10 11 -10 5 0 7 5 4 10 -3 6 -8 10 -11 10 -2 0
-4 -4 -4 -10z"/>
<path d="M6345 370 c3 -5 11 -10 16 -10 6 0 7 5 4 10 -3 6 -11 10 -16 10 -6 0
-7 -4 -4 -10z"/>
<path d="M1860 360 c0 -5 5 -10 11 -10 5 0 7 5 4 10 -3 6 -8 10 -11 10 -2 0
-4 -4 -4 -10z"/>
<path d="M3240 360 c0 -5 5 -10 11 -10 5 0 7 5 4 10 -3 6 -8 10 -11 10 -2 0
-4 -4 -4 -10z"/>
<path d="M3286 357 c3 -10 9 -15 12 -12 3 3 0 11 -7 18 -10 9 -11 8 -5 -6z"/>
<path d="M3818 359 c-10 -5 -18 -14 -18 -19 0 -17 15 -11 28 10 14 23 13 23
-10 9z"/>
<path d="M5180 360 c0 -5 5 -10 10 -10 6 0 10 5 10 10 0 6 -4 10 -10 10 -5 0
-10 -4 -10 -10z"/>
<path d="M3065 350 c3 -5 11 -10 16 -10 6 0 7 5 4 10 -3 6 -11 10 -16 10 -6 0
-7 -4 -4 -10z"/>
<path d="M4628 353 c7 -3 16 -2 19 1 4 3 -2 6 -13 5 -11 0 -14 -3 -6 -6z"/>
<path d="M3623 338 c-28 -37 -27 -51 2 -22 23 24 28 11 6 -13 -20 -21 -20 -21
3 -19 21 1 25 15 17 59 -2 11 -18 8 -28 -5z"/>
<path d="M4673 343 c9 -2 25 -2 35 0 9 3 1 5 -18 5 -19 0 -27 -2 -17 -5z"/>
<path d="M5195 304 c-10 -26 -21 -40 -24 -33 -7 23 -20 27 -77 24 -61 -4 -83
-13 -63 -26 23 -14 57 -10 68 8 8 16 12 16 36 3 15 -8 31 -23 34 -34 6 -15 12
-9 30 33 12 29 21 57 19 62 -2 6 -12 -11 -23 -37z"/>
<path d="M3500 316 c0 -2 7 -7 16 -10 8 -3 12 -2 9 4 -6 10 -25 14 -25 6z"/>
<path d="M3065 300 c3 -5 8 -10 11 -10 2 0 4 5 4 10 0 6 -5 10 -11 10 -5 0 -7
-4 -4 -10z"/>
<path d="M3282 298 c-7 -9 -6 -17 3 -25 10 -9 13 -7 11 13 -1 28 -1 28 -14 12z"/>
<path d="M6247 303 c-12 -12 -7 -22 8 -17 8 4 15 10 15 15 0 11 -14 12 -23 2z"/>
<path d="M6286 301 c-4 -5 -2 -20 3 -33 8 -21 9 -20 9 10 -1 34 -3 38 -12 23z"/>
<path d="M4590 283 c0 -12 5 -25 12 -29 7 -5 4 -10 -10 -15 -27 -10 -28 -29
-2 -57 12 -13 17 -28 13 -38 -4 -11 -2 -15 4 -11 13 8 23 -25 23 -80 0 -24 5
-43 10 -43 6 0 8 10 6 23 -3 12 -8 52 -11 90 -5 48 -11 67 -21 67 -17 0 -17 5
-4 30 7 13 5 28 -5 52 -11 26 -14 29 -15 11z"/>
<path d="M1883 265 c-9 -10 -9 -22 0 -50 8 -29 8 -38 -2 -44 -10 -7 -10 -10
-1 -16 12 -8 30 10 30 32 0 6 3 13 8 16 4 2 1 2 -5 1 -18 -4 -29 46 -13 56 7
4 8 10 4 13 -5 3 -14 -1 -21 -8z"/>
<path d="M3630 264 c0 -3 7 -12 15 -20 16 -17 18 -14 9 10 -6 15 -24 23 -24
10z"/>
<path d="M4447 253 c-10 -10 -8 -63 2 -63 11 0 21 25 21 51 0 19 -11 25 -23
12z"/>
<path d="M6270 239 c0 -6 -7 -9 -15 -5 -18 7 -20 -5 -3 -22 10 -10 10 -15 -1
-21 -20 -13 5 -24 26 -12 12 7 13 11 5 11 -10 0 -12 8 -7 30 4 17 4 30 1 30
-3 0 -6 -5 -6 -11z"/>
<path d="M3113 225 c-15 -17 -17 -29 -4 -20 5 3 10 -7 9 -22 0 -16 9 -60 19
-99 l19 -71 -33 3 c-18 1 -35 -1 -38 -5 -2 -5 66 -9 151 -10 107 -2 154 1 149
8 -3 7 -25 9 -51 5 -43 -5 -45 -4 -39 16 4 13 2 20 -6 20 -7 0 -10 3 -6 6 3 3
-12 22 -34 42 -21 20 -39 42 -39 49 0 6 -8 17 -17 22 -10 6 -14 11 -10 11 5 0
-1 14 -13 30 -23 33 -38 37 -57 15z"/>
<path d="M3516 217 c3 -10 9 -15 12 -12 3 3 0 11 -7 18 -10 9 -11 8 -5 -6z"/>
<path d="M3636 217 c3 -10 9 -15 12 -12 3 3 0 11 -7 18 -10 9 -11 8 -5 -6z"/>
<path d="M3317 213 c-10 -9 -8 -56 2 -73 7 -9 9 -1 6 25 -1 22 2 43 9 47 7 5
7 8 0 8 -6 0 -14 -3 -17 -7z"/>
<path d="M3500 180 c-9 -6 -10 -10 -3 -10 6 0 15 5 18 10 8 12 4 12 -15 0z"/>
<path d="M4465 180 c-3 -5 -2 -10 4 -10 5 0 13 5 16 10 3 6 2 10 -4 10 -5 0
-13 -4 -16 -10z"/>
<path d="M1944 119 c0 -13 3 -15 13 -7 7 6 13 12 13 13 0 2 -6 5 -13 8 -7 3
-13 -3 -13 -14z"/>
<path d="M6254 121 c4 -5 2 -11 -3 -13 -5 -1 -3 -8 4 -15 10 -9 13 -6 13 13 0
13 -5 24 -10 24 -5 0 -7 -4 -4 -9z"/>
<path d="M4485 110 c3 -5 8 -10 11 -10 2 0 4 5 4 10 0 6 -5 10 -11 10 -5 0 -7
-4 -4 -10z"/>
<path d="M5036 84 c-8 -22 -9 -22 19 -16 14 2 25 11 25 18 0 19 -36 18 -44 -2z"/>
<path d="M1846 75 c-3 -9 -6 -26 -5 -38 1 -14 4 -9 9 13 9 37 7 52 -4 25z"/>
<path d="M1950 76 c0 -2 8 -10 18 -17 15 -13 16 -12 3 4 -13 16 -21 21 -21 13z"/>
<path d="M2030 72 c0 -12 19 -26 26 -19 2 2 -2 10 -11 17 -9 8 -15 8 -15 2z"/>
<path d="M3575 70 c-3 -5 -1 -10 4 -10 6 0 11 5 11 10 0 6 -2 10 -4 10 -3 0
-8 -4 -11 -10z"/>
<path d="M3605 60 c-3 -6 1 -7 9 -4 18 7 21 14 7 14 -6 0 -13 -4 -16 -10z"/>
<path d="M3695 60 c-3 -5 -1 -10 4 -10 6 0 11 5 11 10 0 6 -2 10 -4 10 -3 0
-8 -4 -11 -10z"/>
<path d="M2735 30 c-10 -11 -13 -20 -7 -20 7 0 12 5 12 11 0 8 5 8 15 -1 16
-13 20 -3 7 18 -7 9 -13 8 -27 -8z"/>
<path d="M2033 27 c1 -5 6 -8 11 -7 5 1 12 -4 16 -10 4 -6 17 -10 28 -8 32 5
11 29 -27 32 -17 1 -30 -2 -28 -7z"/>
<path d="M3695 20 c3 -5 8 -10 11 -10 2 0 4 5 4 10 0 6 -5 10 -11 10 -5 0 -7
-4 -4 -10z"/>
</g>
</svg>
